<?xml version="1.0" standalone="no"?>
<!DOCTYPE svg PUBLIC "-//W3C//DTD SVG 20010904//EN"
 "http://www.w3.org/TR/2001/REC-SVG-20010904/DTD/svg10.dtd">
<svg version="1.0" xmlns="http://www.w3.org/2000/svg"
 width="360.000000pt" height="360.000000pt" viewBox="0 0 360.000000 360.000000"
 preserveAspectRatio="xMidYMid meet">
<metadata>
Created by potrace 1.11, written by Peter Selinger 2001-2013
</metadata>
<g transform="translate(0.000000,360.000000) scale(0.100000,-0.100000)"
fill="#000000" stroke="none">
<path d="M1747 3390 c-55 -64 -166 -280 -179 -344 -3 -15 17 -17 212 -17 191
0 215 2 212 16 -5 28 -72 179 -108 243 -36 64 -90 132 -104 132 -5 0 -19 -13
-33 -30z"/>
<path d="M1695 2901 c-102 -61 -125 -181 -56 -284 40 -58 75 -77 143 -77 110
1 183 78 183 197 0 52 -4 68 -30 104 -16 23 -46 50 -65 60 -46 25 -135 25
-175 0z m106 -71 c17 0 49 -40 49 -60 0 -26 -74 -100 -99 -100 -28 0 -81 48
-81 74 0 12 6 30 13 41 17 23 78 54 95 49 8 -2 18 -4 23 -4z"/>
<path d="M1760 2028 c-6 -24 -15 -56 -20 -72 -6 -16 -10 -51 -10 -77 l0 -49
-85 0 c-78 0 -85 -2 -85 -20 0 -11 9 -25 20 -32 11 -7 20 -23 20 -35 0 -12 9
-30 19 -40 19 -18 19 -19 -1 -78 -31 -90 -21 -275 26 -499 49 -234 129 -566
136 -566 8 0 87 330 136 565 47 227 57 421 25 504 -20 54 -20 55 -1 68 11 8
20 24 20 37 0 13 9 31 20 41 11 10 20 26 20 37 0 16 -9 18 -85 18 l-85 0 0 49
c0 26 -4 61 -10 77 -5 16 -14 48 -20 72 -6 23 -15 42 -20 42 -5 0 -14 -19 -20
-42z m-15 -460 c3 -68 8 -134 10 -148 2 -14 7 -72 10 -130 7 -102 10 -118 20
-109 2 3 12 118 21 257 17 245 18 252 39 252 12 0 30 -6 41 -14 27 -20 32
-160 10 -282 -23 -126 -107 -464 -116 -464 -9 0 -93 338 -116 464 -19 105 -16
254 5 279 7 10 26 17 41 17 l28 0 7 -122z"/>
<path d="M1413 2025 c-76 -51 -172 -143 -194 -186 -34 -68 -21 -215 40 -442
29 -108 36 -125 47 -115 3 4 21 68 39 145 48 197 81 298 126 381 l40 72 -18
90 c-9 50 -19 90 -23 90 -3 0 -28 -16 -57 -35z"/>
<path d="M2067 1970 l-18 -90 36 -64 c46 -83 77 -175 125 -370 21 -87 42 -161
45 -164 11 -12 23 20 61 172 32 127 38 168 38 261 1 102 -1 113 -24 147 -36
51 -215 198 -242 198 -2 0 -12 -41 -21 -90z"/>
<path d="M1500 536 c0 -16 24 -38 33 -30 8 9 -11 44 -23 44 -6 0 -10 -6 -10
-14z"/>
<path d="M2147 503 c-3 -5 1 -17 9 -28 14 -18 14 -18 14 2 0 23 -15 39 -23 26z"/>
</g>
</svg>
