<svg width="218" height="68" viewBox="0 0 218 68" fill="none" xmlns="http://www.w3.org/2000/svg">
<g clip-path="url(#clip0)">
<path d="M8.53491 45.2076C8.53491 50.3917 12.5061 65 12.5061 65C12.5061 65 16.4772 50.3917 16.4772 45.2076C16.4772 40.0235 14.7024 39.5592 12.5061 39.5592C10.3097 39.5592 8.53491 40.0204 8.53491 45.2076Z" fill="#FFA200"/>
<path d="M9.63159 43.4642C9.63159 47.0525 12.5 57.1562 12.5 57.1562C12.5 57.1562 15.3684 47.0525 15.3684 43.4642C15.3684 39.8759 14.0854 39.5592 12.5 39.5592C10.9146 39.5592 9.63159 39.879 9.63159 43.4642Z" fill="#FFCE1B"/>
<path d="M10.71 41.8038C10.71 43.867 11.5103 49.6753 12.5 49.6753C13.4898 49.6753 14.2901 43.867 14.2901 41.8038C14.2901 39.7406 13.4898 39.5592 12.5 39.5592C11.5103 39.5592 10.71 39.7437 10.71 41.8038Z" fill="#FFEBE6"/>
<path d="M7.07174 31.657C5.07037 32.8033 3.20953 34.182 1.52739 35.7649C0.99539 36.2585 0.582779 36.8682 0.321199 37.5473C0.0596183 38.2263 -0.043982 38.9566 0.0183437 39.6822C0.370515 42.8921 1.0565 46.056 2.06502 49.1218C2.0774 49.1523 2.09854 49.1785 2.12574 49.1969C2.15295 49.2153 2.18498 49.2251 2.21776 49.2251C2.25053 49.2251 2.28257 49.2153 2.30977 49.1969C2.33697 49.1785 2.35811 49.1523 2.37049 49.1218C3.32968 44.6849 4.31942 40.6661 5.49855 38.2954L7.54217 34.7594L7.07174 31.657Z" fill="#BA0000"/>
<path opacity="0.06" d="M7.22149 32.6594C6.20427 34.5043 3.91627 42.3266 4.7777 39.9467C4.98866 39.3838 5.22931 38.8326 5.49862 38.2955L7.54224 34.7595L7.22149 32.6594Z" fill="black"/>
<path opacity="0.09" d="M5.44051 32.6594C4.05128 33.5814 2.74222 34.6203 1.52739 35.765C0.99539 36.2586 0.582779 36.8683 0.321199 37.5473C0.0596183 38.2263 -0.043982 38.9567 0.0183437 39.6822C0.370515 42.8922 1.0565 46.0561 2.06502 49.1218C1.42658 41.3887 5.44051 36.9119 5.44051 32.6594Z" fill="white"/>
<path opacity="0.23" d="M4.35915 34.1845C4.59436 34.2983 3.67489 35.5528 2.83178 37.3423C1.98867 39.1319 1.5274 40.78 1.29524 40.6662C1.06308 40.5524 0.760663 38.5354 1.60072 36.7458C2.44077 34.9563 4.12088 34.0708 4.35915 34.1845Z" fill="white"/>
<path d="M17.9283 31.657C19.935 32.8023 21.801 34.1811 23.4879 35.7649C24.0177 36.2596 24.4278 36.8699 24.6868 37.5489C24.9457 38.228 25.0466 38.9577 24.9817 39.6822C24.6292 42.8918 23.9443 46.0555 22.9381 49.1218C22.9257 49.1523 22.9045 49.1785 22.8773 49.1969C22.8501 49.2153 22.8181 49.2251 22.7853 49.2251C22.7526 49.2251 22.7205 49.2153 22.6933 49.1969C22.6661 49.1785 22.645 49.1523 22.6326 49.1218C21.6856 44.6972 20.6989 40.6784 19.529 38.3077L17.4854 34.7717L17.9283 31.657Z" fill="#BA0000"/>
<path opacity="0.06" d="M17.7816 32.6594C18.7957 34.5043 21.0837 42.3266 20.2101 39.9467C20.0058 39.3848 19.7734 38.8337 19.5136 38.2955L17.47 34.7595L17.7816 32.6594Z" fill="black"/>
<path opacity="0.09" d="M19.5503 32.6594C20.9453 33.5799 22.2596 34.6189 23.4787 35.765C24.0085 36.2596 24.4186 36.8699 24.6775 37.549C24.9365 38.228 25.0374 38.9578 24.9725 39.6822C24.6229 42.8915 23.9411 46.0553 22.938 49.1218C23.5734 41.3887 19.5503 36.9119 19.5503 32.6594Z" fill="white"/>
<path opacity="0.23" d="M22.2996 35.3314C22.156 35.399 22.6509 36.2231 23.1641 37.3115C23.6773 38.4 24.0194 39.344 24.163 39.2763C24.3066 39.2087 24.4501 38.028 23.9369 36.9395C23.4237 35.851 22.4493 35.2607 22.2996 35.3314Z" fill="white"/>
<path d="M15.2064 40.4479C13.4079 40.3341 11.6041 40.3341 9.80564 40.4479C9.76005 40.451 9.7143 40.4448 9.67123 40.4294C9.14887 40.2572 8.69982 39.9374 8.69982 39.3655V36.8596C8.69571 36.5779 8.80214 36.3059 8.99602 36.1027C9.18989 35.8995 9.45557 35.7814 9.73538 35.7742H15.3561C15.6362 35.7806 15.9023 35.8984 16.0964 36.1018C16.2904 36.3052 16.3966 36.5776 16.3917 36.8596V39.3655C16.3917 39.9036 15.9976 40.2172 15.518 40.3956C15.4188 40.4344 15.3127 40.4522 15.2064 40.4479Z" fill="#949494"/>
<path opacity="0.18" d="M15.5792 35.8018L15.3715 35.7803C15.5325 37.3352 15.4873 38.9049 15.2371 40.4478C15.341 40.4538 15.445 40.4381 15.5425 40.4017C16.0221 40.2233 16.4162 39.9097 16.4162 39.3716V36.8657C16.3918 36.2692 16.1352 35.8018 15.5792 35.8018Z" fill="black"/>
<path d="M15.9152 38.9104C13.7433 38.9657 11.492 38.9565 9.14899 38.9104C9.11599 38.9085 9.08324 38.9034 9.05124 38.895C8.39753 38.6921 7.82935 38.3139 7.82935 37.6282V34.6702C7.82934 34.3307 7.96313 34.0051 8.20136 33.7647C8.43959 33.5243 8.76281 33.3889 9.10012 33.3881H15.9947C16.3323 33.3889 16.6558 33.5242 16.8945 33.7645C17.1332 34.0048 17.2677 34.3304 17.2685 34.6702V37.6282C17.2685 38.3046 16.7095 38.6828 16.068 38.8858C16.0182 38.9002 15.967 38.9084 15.9152 38.9104Z" fill="#4D4D4D"/>
<path opacity="0.18" d="M16.01 33.385H15.8237C15.9337 35.2316 15.8723 37.0845 15.6404 38.9196H15.9C15.9517 38.9174 16.003 38.9092 16.0528 38.895C16.6943 38.6982 17.2533 38.3231 17.2563 37.6436L17.2777 34.6856C17.2797 34.5163 17.2485 34.3483 17.1858 34.1912C17.1231 34.0341 17.0302 33.891 16.9124 33.7701C16.7946 33.6493 16.6542 33.553 16.4994 33.4869C16.3445 33.4209 16.1782 33.3862 16.01 33.385Z" fill="black"/>
<path d="M18.3925 35.9371C18.3364 36.2848 18.1718 36.6055 17.9224 36.8527C17.673 37.0998 17.3519 37.2605 17.0056 37.3115C15.4783 37.4837 13.9173 37.4038 12.4235 37.4099C10.9298 37.4161 9.50625 37.4837 7.98805 37.3115C7.64177 37.2605 7.32065 37.0998 7.07127 36.8527C6.8219 36.6055 6.65724 36.2848 6.6012 35.9371C2.44369 16.8734 11.3727 3.22753 12.503 3C13.6332 3.22753 22.5561 16.8734 18.3925 35.9371Z" fill="#EBEBEB"/>
<path d="M11.4858 35.5743L12.4023 32.192C12.4267 32.0198 12.5917 32.0198 12.613 32.192L13.5295 35.5743C13.3706 40.2879 13.0285 45.6042 12.5825 51.2557C12.5791 51.2723 12.5701 51.2872 12.557 51.2979C12.5439 51.3086 12.5276 51.3145 12.5107 51.3145C12.4938 51.3145 12.4775 51.3086 12.4644 51.2979C12.4514 51.2872 12.4423 51.2723 12.4389 51.2557C11.9777 45.5397 11.6233 40.1834 11.4858 35.5743Z" fill="#BA0000"/>
<path d="M7.88745 11.4587C9.47189 11.3183 11.0624 11.2598 12.6528 11.2835C13.9358 11.2835 15.7534 11.305 17.1158 11.4495C15.3044 6.20393 13.0347 3.10762 12.5032 3C11.9686 3.10762 9.69586 6.207 7.88745 11.4587Z" fill="#BA0000"/>
<path d="M10.5969 11.8278L9.12752 11.8954C6.2469 18.5185 7.01364 28.0042 7.9209 36.1555C8.04309 36.5706 8.28136 36.9334 8.70902 36.9334H10.8473C9.7232 27.0849 9.16418 21.2674 10.5969 11.8278Z" fill="white"/>
<path opacity="0.38" d="M10.8505 10.9515C11.0154 9.91527 11.1957 8.90366 11.4125 7.76599C10.6358 8.76782 9.98335 9.8613 9.46973 11.0222L10.8505 10.9515Z" fill="white"/>
<path opacity="0.25" d="M12.5458 21.7377C11.5472 21.7374 10.5869 21.3507 9.86367 20.6576C9.14043 19.9645 8.70954 19.0181 8.66016 18.0142C8.66016 18.0787 8.66016 18.1402 8.66016 18.2079C8.66016 19.2468 9.07018 20.2432 9.80002 20.9778C10.5299 21.7124 11.5197 22.1251 12.5519 22.1251C13.584 22.1251 14.5739 21.7124 15.3038 20.9778C16.0336 20.2432 16.4436 19.2468 16.4436 18.2079C16.4436 18.1402 16.4436 18.0787 16.4436 18.0142C16.3949 19.0205 15.9625 19.9691 15.2365 20.6627C14.5105 21.3562 13.5467 21.7413 12.5458 21.7377Z" fill="black"/>
<path d="M16.3208 18.6391C16.851 16.5408 15.5909 14.4071 13.5062 13.8734C11.4215 13.3397 9.30177 14.6081 8.77156 16.7065C8.24135 18.8048 9.50148 20.9385 11.5861 21.4722C13.6708 22.0059 15.7906 20.7375 16.3208 18.6391Z" fill="#00736F"/>
<path d="M15.6706 18.4117C16.0757 16.6759 15.0062 14.9382 13.2817 14.5304C11.5572 14.1226 9.83077 15.1992 9.42566 16.935C9.02055 18.6708 10.0901 20.4086 11.8146 20.8163C13.5391 21.2241 15.2655 20.1475 15.6706 18.4117Z" fill="#016661"/>
<path d="M12.546 20.3695C14.0255 20.3695 15.225 19.1622 15.225 17.6729C15.225 16.1836 14.0255 14.9763 12.546 14.9763C11.0664 14.9763 9.86694 16.1836 9.86694 17.6729C9.86694 19.1622 11.0664 20.3695 12.546 20.3695Z" fill="url(#paint0_radial)"/>
<path d="M12.546 15.6251C13.2004 15.6254 13.8322 15.8667 14.3223 16.3033C14.8123 16.7399 15.1269 17.3419 15.2066 17.9958C15.219 17.8886 15.2251 17.7808 15.225 17.6729C15.225 16.9577 14.9427 16.2718 14.4403 15.7661C13.9379 15.2604 13.2565 14.9763 12.546 14.9763C11.8354 14.9763 11.154 15.2604 10.6516 15.7661C10.1492 16.2718 9.86694 16.9577 9.86694 17.6729C9.86781 17.7809 9.87495 17.8887 9.88833 17.9958C9.96739 17.3422 10.2813 16.7402 10.7709 16.3035C11.2604 15.8668 11.8918 15.6255 12.546 15.6251Z" fill="#53BCE3"/>
<path d="M14.5405 18.2755C14.7665 18.626 14.571 19.1549 14.1036 19.4593C13.6362 19.7637 13.0772 19.7329 12.8542 19.3855C12.6312 19.038 12.8237 18.5092 13.288 18.2017C13.7523 17.8942 14.3144 17.928 14.5405 18.2755Z" fill="#47B3E4"/>
<path opacity="0.56" d="M12.7963 15.9479C12.833 16.1447 12.6588 16.2247 12.4053 16.2554C12.1517 16.2862 11.9196 16.2985 11.886 16.1017C11.8524 15.9049 12.0265 15.7112 12.277 15.6651C12.3831 15.6335 12.4973 15.6456 12.5947 15.6986C12.692 15.7516 12.7645 15.8413 12.7963 15.9479Z" fill="white"/>
<path opacity="0.56" d="M11.4463 16.2462C11.6082 16.3877 11.4463 16.6952 11.1408 17.0211C10.8353 17.347 10.5787 17.5684 10.4168 17.427C10.2549 17.2855 10.3007 16.8366 10.5818 16.5045C10.8628 16.1724 11.2844 16.1079 11.4463 16.2462Z" fill="white"/>
<path opacity="0.52" d="M11.3881 14.2169C11.3881 14.2753 10.4717 14.6689 9.89741 15.3515C9.19787 16.2001 9.04819 17.0918 8.99931 17.0518C8.95044 17.0118 9.05125 16.0125 9.73551 15.2069C10.4778 14.3521 11.382 14.1492 11.3881 14.2169Z" fill="white"/>
<path opacity="0.52" d="M13.508 21.1874C13.508 21.132 14.7605 20.6462 15.3989 19.7391C15.8571 19.0378 16.1295 18.2302 16.1901 17.3931C16.2438 18.2645 16.0096 19.1294 15.5241 19.8529C14.7055 21.0121 13.4897 21.2519 13.508 21.1874Z" fill="white"/>
<path opacity="0.08" d="M12.5031 3C12.0297 3.09532 10.1968 5.53362 8.53198 9.73071C15.5579 -0.68667 19.4985 22.1221 16.2147 37.3823C16.2147 37.3823 16.7553 37.3423 17.0119 37.3115C17.3582 37.2605 17.6793 37.0998 17.9287 36.8527C18.1781 36.6055 18.3427 36.2848 18.3988 35.9371C22.5563 16.8734 13.6334 3.22753 12.5031 3Z" fill="black"/>
<path opacity="0.06" d="M12.6069 32.1797C12.6069 32.0997 12.555 32.0567 12.5122 32.0505L12.5122 51.3264C12.5292 51.3241 12.5448 51.3157 12.5561 51.3027C12.5673 51.2896 12.5734 51.2729 12.5733 51.2556C13.0193 45.6042 13.3614 40.2879 13.5203 35.5742L12.6069 32.1797Z" fill="black"/>
<path opacity="0.17" d="M8.97778 37.6989H10.8565V38.6675H9.77507C9.56686 38.6675 9.36717 38.5842 9.21994 38.436C9.07271 38.2878 8.99 38.0868 8.99 37.8773V37.6897L8.97778 37.6989Z" fill="white"/>
<path opacity="0.17" d="M11.0155 40.1773H9.91881C9.78999 40.1773 9.66645 40.1258 9.57536 40.0341C9.48428 39.9424 9.43311 39.818 9.43311 39.6884V39.181H11.0155V40.1773Z" fill="white"/>
<path opacity="0.23" d="M12.4785 32.189L12.2463 35.5466L12.5029 44.4881L12.4785 32.189Z" fill="white"/>
</g>
<path d="M35.25 48.4668C34.6758 44.1465 34.3203 39.6895 34.1836 35.0957C34.0469 30.4746 34.0469 26.0176 34.1836 21.7246C33.9375 21.8613 33.7188 21.9844 33.5273 22.0938C33.3359 22.2031 33.1035 22.2578 32.8301 22.2578C32.6387 22.2578 32.4609 22.1758 32.2969 22.0117C32.1328 21.8477 32.0508 21.6426 32.0508 21.3965V21.2734C32.0508 21.2461 32.0645 21.2051 32.0918 21.1504C32.3105 20.9043 32.5703 20.4805 32.8711 19.8789C33.1992 19.2773 33.541 18.6895 33.8965 18.1152C34.252 17.5137 34.5938 16.9941 34.9219 16.5566C35.25 16.0918 35.5371 15.8594 35.7832 15.8594C36.0293 15.8594 36.207 15.9277 36.3164 16.0645C36.4531 16.1738 36.5625 16.3105 36.6445 16.4746C36.7266 16.6387 36.8086 16.8301 36.8906 17.0488C37 17.2402 37.1504 17.3906 37.3418 17.5C38.1621 17.0078 39.0645 16.584 40.0488 16.2285C41.0332 15.873 42.0176 15.627 43.002 15.4902C44.0137 15.3535 44.9844 15.3398 45.9141 15.4492C46.8711 15.5312 47.7324 15.7637 48.498 16.1465C49.2637 16.502 49.9199 17.0215 50.4668 17.7051C51.0137 18.3887 51.3691 19.25 51.5332 20.2891C51.5059 21.6289 51.1094 22.9004 50.3438 24.1035C49.6055 25.2793 48.6758 26.3594 47.5547 27.3438C46.4609 28.3008 45.2715 29.1621 43.9863 29.9277C42.7012 30.666 41.5117 31.3086 40.418 31.8555C39.3516 32.4023 38.4629 32.8398 37.752 33.168C37.0684 33.4961 36.7539 33.6875 36.8086 33.7422V48.4668C36.8086 48.6855 36.7129 48.8359 36.5215 48.918C36.3301 49 36.1523 49.041 35.9883 49.041C35.6875 49.041 35.4414 48.8496 35.25 48.4668ZM36.8086 20.125C36.7266 20.918 36.6172 21.793 36.4805 22.75C36.3711 23.6797 36.2891 24.6504 36.2344 25.6621C36.1797 26.6465 36.1797 27.6172 36.2344 28.5742C36.3164 29.5312 36.5078 30.3926 36.8086 31.1582C37.9844 30.6387 39.2148 30.0645 40.5 29.4355C41.7852 28.7793 43.0156 28.041 44.1914 27.2207C45.3672 26.4004 46.4199 25.498 47.3496 24.5137C48.3066 23.502 49.0176 22.3809 49.4824 21.1504C49.4824 20.4941 49.2363 19.9336 48.7441 19.4688C48.2793 19.0039 47.7051 18.6211 47.0215 18.3203C46.3379 18.0195 45.627 17.8145 44.8887 17.7051C44.1777 17.5684 43.5898 17.5 43.125 17.5C42.8516 17.5 42.4004 17.582 41.7715 17.7461C41.1699 17.8828 40.5273 18.0742 39.8438 18.3203C39.1875 18.5391 38.5586 18.8125 37.957 19.1406C37.3828 19.4688 37 19.7969 36.8086 20.125ZM53.4609 29.2305V28.9023C53.4609 28.6289 53.5566 28.4375 53.748 28.3281C53.9668 28.2188 54.2129 28.1641 54.4863 28.1641C54.7051 28.1641 54.9102 28.1914 55.1016 28.2461C55.293 28.2734 55.4434 28.4238 55.5527 28.6973C55.6348 29.1074 55.7168 29.6816 55.7988 30.4199C55.8809 31.1309 55.9766 31.9238 56.0859 32.7988C56.1953 33.6738 56.3047 34.6035 56.4141 35.5879C56.5508 36.5449 56.6738 37.4609 56.7832 38.3359C56.9199 39.1836 57.0566 39.9492 57.1934 40.6328C57.3301 41.3164 57.4805 41.8359 57.6445 42.1914C57.5625 39.5664 57.6445 37.2969 57.8906 35.3828C58.1367 33.4414 58.6016 31.8691 59.2852 30.666C59.9961 29.4355 60.9531 28.5879 62.1562 28.123C63.3867 27.6309 64.918 27.5215 66.75 27.7949C67.5977 27.7949 68.0215 28.2461 68.0215 29.1484C68.0215 29.5039 67.7891 29.75 67.3242 29.8867C66.8594 29.9961 66.3398 30.0781 65.7656 30.1328C65.1914 30.1602 64.6309 30.2012 64.084 30.2559C63.5371 30.3105 63.1406 30.4473 62.8945 30.666C61.9102 31.2129 61.2129 32.0605 60.8027 33.209C60.4199 34.3574 60.1465 35.7109 59.9824 37.2695C59.8184 38.8281 59.6953 40.5371 59.6133 42.3965C59.5586 44.2285 59.3809 46.1152 59.0801 48.0566C59.0801 48.3301 58.9707 48.5352 58.752 48.6719C58.5332 48.8086 58.2598 48.877 57.9316 48.877C57.6309 48.877 57.3301 48.8086 57.0293 48.6719C56.7559 48.5352 56.5371 48.3301 56.373 48.0566L53.4609 29.2305ZM70.0723 43.3809C69.8809 42.123 69.7852 40.9062 69.7852 39.7305C69.7852 38.5273 69.8535 37.3105 69.9902 36.0801C70.1543 34.8496 70.373 33.5781 70.6465 32.2656C70.9473 30.9258 71.2891 29.4902 71.6719 27.959C71.6719 27.6582 71.7539 27.3848 71.918 27.1387C72.082 26.8652 72.3008 26.6465 72.5742 26.4824C72.8477 26.291 73.1348 26.1406 73.4355 26.0312C73.7363 25.9219 74.0234 25.8672 74.2969 25.8672C74.8984 25.8672 75.4453 26.0586 75.9375 26.4414C76.4297 26.8242 76.8672 27.2891 77.25 27.8359C77.6602 28.3828 78.002 28.9707 78.2754 29.5996C78.5762 30.2012 78.8223 30.7207 79.0137 31.1582C79.2324 32.1152 79.3828 33.209 79.4648 34.4395C79.5742 35.6426 79.5879 36.873 79.5059 38.1309C79.4238 39.3887 79.2324 40.6328 78.9316 41.8633C78.6309 43.0664 78.207 44.1738 77.6602 45.1855C77.1133 46.1973 76.4023 47.0449 75.5273 47.7285C74.6797 48.4121 73.668 48.8359 72.4922 49C71.8633 49 71.3848 48.7949 71.0566 48.3848C70.7285 47.9473 70.4824 47.4277 70.3184 46.8262C70.1816 46.1973 70.0996 45.5684 70.0723 44.9395C70.0723 44.3105 70.0723 43.791 70.0723 43.3809ZM72.1641 43.2578C72.1641 43.5312 72.1641 43.791 72.1641 44.0371C72.1914 44.2832 72.2188 44.5293 72.2461 44.7754C72.3008 44.9941 72.3555 45.2402 72.4102 45.5137C72.4922 45.7598 72.5879 46.0469 72.6973 46.375H72.9434C73.5996 46.375 74.1602 46.1562 74.625 45.7188C75.0898 45.2812 75.4863 44.7207 75.8145 44.0371C76.1426 43.3262 76.416 42.5469 76.6348 41.6992C76.8535 40.8242 77.0176 39.9766 77.127 39.1562C77.2637 38.3086 77.3457 37.5293 77.373 36.8184C77.4277 36.0801 77.4551 35.4922 77.4551 35.0547V34.2344C77.4551 33.8789 77.4414 33.4824 77.4141 33.0449C77.3867 32.5801 77.332 32.1152 77.25 31.6504C77.1953 31.1582 77.0996 30.7207 76.9629 30.3379C76.8262 29.9277 76.6484 29.5996 76.4297 29.3535C76.2109 29.1074 75.9238 28.9844 75.5684 28.9844C74.9668 28.793 74.4473 28.834 74.0098 29.1074C73.5996 29.3809 73.2578 29.8457 72.9844 30.502C72.7383 31.1309 72.5469 31.9102 72.4102 32.8398C72.2734 33.7695 72.1914 34.7949 72.1641 35.916C72.1367 37.0371 72.123 38.2266 72.123 39.4844C72.1504 40.7422 72.1641 42 72.1641 43.2578ZM84.1406 65.0371C86.5469 64.9004 88.4336 64.2715 89.8008 63.1504C91.1953 62.0293 92.2344 60.5801 92.918 58.8027C93.6016 57.0254 94.0117 54.9883 94.1484 52.6914C94.2852 50.4219 94.2988 48.0703 94.1895 45.6367C94.0801 43.2031 93.916 40.7695 93.6973 38.3359C93.5059 35.875 93.4238 33.5918 93.4512 31.4863C92.2754 34.9316 91.168 37.7207 90.1289 39.8535C89.0898 41.959 88.1191 43.5586 87.2168 44.6523C86.3418 45.7188 85.5352 46.375 84.7969 46.6211C84.0859 46.8398 83.457 46.7988 82.9102 46.498C82.3633 46.1699 81.9121 45.6641 81.5566 44.9805C81.2285 44.2695 80.9961 43.5449 80.8594 42.8066C80.9141 41.5488 81.1602 40.168 81.5977 38.6641C82.0625 37.1328 82.6504 35.6426 83.3613 34.1934C84.0996 32.7168 84.9473 31.3496 85.9043 30.0918C86.8613 28.8066 87.873 27.8086 88.9395 27.0977C90.0059 26.3594 91.1133 25.9766 92.2617 25.9492C93.4102 25.8945 94.5176 26.332 95.584 27.2617C95.6113 27.2891 95.6523 27.6582 95.707 28.3691C95.7891 29.0527 95.8711 29.9688 95.9531 31.1172C96.0625 32.2383 96.1719 33.5098 96.2812 34.9316C96.418 36.3262 96.541 37.748 96.6504 39.1973C96.7598 40.6191 96.8555 41.9863 96.9375 43.2988C97.0195 44.6113 97.1016 45.7461 97.1836 46.7031C97.293 48.2617 97.2246 49.916 96.9785 51.666C96.7598 53.416 96.4043 55.1113 95.9121 56.752C95.4199 58.4199 94.791 59.9785 94.0254 61.4277C93.2871 62.877 92.4258 64.0664 91.4414 64.9961C90.4844 65.9258 89.4043 66.5137 88.2012 66.7598C87.0254 67.0332 85.7676 66.8281 84.4277 66.1445C84.3457 66.1445 84.2227 66.1309 84.0586 66.1035C83.8945 66.1035 83.7578 66.0625 83.6484 65.9805C83.5664 65.8984 83.5527 65.7891 83.6074 65.6523C83.6621 65.5156 83.8398 65.3105 84.1406 65.0371ZM82.9922 42.5195C83.2656 43.3672 83.6211 43.8047 84.0586 43.832C84.5234 43.832 85.0156 43.5449 85.5352 42.9707C86.0547 42.3691 86.6152 41.5352 87.2168 40.4688C87.8457 39.4023 88.4609 38.2402 89.0625 36.9824C89.6641 35.7246 90.252 34.4395 90.8262 33.127C91.4277 31.7871 91.9883 30.543 92.5078 29.3945C92.5078 29.0938 92.4395 28.8203 92.3027 28.5742C92.166 28.3008 91.8652 28.2188 91.4004 28.3281C90.6348 28.4922 89.8828 28.8613 89.1445 29.4355C88.4336 30.0098 87.7637 30.7207 87.1348 31.5684C86.5332 32.3887 85.9727 33.3047 85.4531 34.3164C84.9609 35.3008 84.5234 36.2988 84.1406 37.3105C83.7852 38.2949 83.498 39.2383 83.2793 40.1406C83.0879 41.043 82.9922 41.8359 82.9922 42.5195ZM99.6855 29.2305V28.9023C99.6855 28.6289 99.7812 28.4375 99.9727 28.3281C100.191 28.2188 100.438 28.1641 100.711 28.1641C100.93 28.1641 101.135 28.1914 101.326 28.2461C101.518 28.2734 101.668 28.4238 101.777 28.6973C101.859 29.1074 101.941 29.6816 102.023 30.4199C102.105 31.1309 102.201 31.9238 102.311 32.7988C102.42 33.6738 102.529 34.6035 102.639 35.5879C102.775 36.5449 102.898 37.4609 103.008 38.3359C103.145 39.1836 103.281 39.9492 103.418 40.6328C103.555 41.3164 103.705 41.8359 103.869 42.1914C103.787 39.5664 103.869 37.2969 104.115 35.3828C104.361 33.4414 104.826 31.8691 105.51 30.666C106.221 29.4355 107.178 28.5879 108.381 28.123C109.611 27.6309 111.143 27.5215 112.975 27.7949C113.822 27.7949 114.246 28.2461 114.246 29.1484C114.246 29.5039 114.014 29.75 113.549 29.8867C113.084 29.9961 112.564 30.0781 111.99 30.1328C111.416 30.1602 110.855 30.2012 110.309 30.2559C109.762 30.3105 109.365 30.4473 109.119 30.666C108.135 31.2129 107.438 32.0605 107.027 33.209C106.645 34.3574 106.371 35.7109 106.207 37.2695C106.043 38.8281 105.92 40.5371 105.838 42.3965C105.783 44.2285 105.605 46.1152 105.305 48.0566C105.305 48.3301 105.195 48.5352 104.977 48.6719C104.758 48.8086 104.484 48.877 104.156 48.877C103.855 48.877 103.555 48.8086 103.254 48.6719C102.98 48.5352 102.762 48.3301 102.598 48.0566L99.6855 29.2305ZM127.986 47.9336C127.85 47.2227 127.727 46.375 127.617 45.3906C127.535 44.3789 127.439 43.3672 127.33 42.3555C127.221 41.3164 127.084 40.3457 126.92 39.4434C126.783 38.541 126.564 37.8027 126.264 37.2285C124.869 40.0723 123.639 42.3145 122.572 43.9551C121.506 45.5684 120.562 46.7305 119.742 47.4414C118.949 48.125 118.279 48.4531 117.732 48.4258C117.186 48.3984 116.734 48.1523 116.379 47.6875C116.023 47.2227 115.764 46.6348 115.6 45.9238C115.463 45.1855 115.367 44.502 115.312 43.873C115.312 43.2715 115.449 42.4238 115.723 41.3301C115.996 40.2363 116.365 39.0469 116.83 37.7617C117.295 36.4492 117.842 35.123 118.471 33.7832C119.127 32.4434 119.824 31.2266 120.562 30.1328C121.301 29.0391 122.066 28.1367 122.859 27.4258C123.652 26.7148 124.445 26.3594 125.238 26.3594C126.414 26.168 127.275 26.4277 127.822 27.1387C128.396 27.8223 128.506 28.9844 128.15 30.625C128.15 32.4297 128.219 33.9746 128.355 35.2598C128.52 36.5449 128.684 37.7754 128.848 38.9512C129.039 40.127 129.203 41.3574 129.34 42.6426C129.504 43.9277 129.586 45.4727 129.586 47.2773C129.586 47.6055 129.545 47.8926 129.463 48.1387C129.408 48.3574 129.08 48.4668 128.479 48.4668C128.396 48.4668 128.287 48.3984 128.15 48.2617C128.041 48.125 127.986 48.0156 127.986 47.9336ZM125.771 29.5996C125.471 29.1621 125.061 29.1211 124.541 29.4766C124.021 29.832 123.475 30.4199 122.9 31.2402C122.326 32.0605 121.738 33.0449 121.137 34.1934C120.535 35.3418 119.975 36.5039 119.455 37.6797C118.936 38.8555 118.484 39.9766 118.102 41.043C117.719 42.082 117.459 42.9434 117.322 43.627C117.322 44.6113 117.473 45.1719 117.773 45.3086C118.074 45.418 118.443 45.2539 118.881 44.8164C119.318 44.3789 119.811 43.75 120.357 42.9297C120.932 42.1094 121.479 41.2344 121.998 40.3047C122.545 39.375 123.051 38.4727 123.516 37.5977C124.008 36.7227 124.391 36.0117 124.664 35.4648C124.91 34.8906 125.102 34.3574 125.238 33.8652C125.375 33.373 125.484 32.9082 125.566 32.4707C125.676 32.0059 125.73 31.541 125.73 31.0762C125.758 30.6113 125.771 30.1191 125.771 29.5996ZM132.58 46.9082C132.771 45.6504 132.895 44.0781 132.949 42.1914C133.031 40.3047 133.059 38.2949 133.031 36.1621C133.031 34.0293 132.99 31.8281 132.908 29.5586C132.826 27.2891 132.717 25.1426 132.58 23.1191C132.443 21.0684 132.279 19.2363 132.088 17.623C131.924 16.0098 131.746 14.7383 131.555 13.8086C131.801 13.6445 132.006 13.5215 132.17 13.4395C132.361 13.3301 132.58 13.2754 132.826 13.2754C133.018 13.2754 133.182 13.3164 133.318 13.3984C133.455 13.4531 133.564 13.5898 133.646 13.8086C134.193 19.168 134.562 24.5684 134.754 30.0098C134.973 35.4512 135.137 40.8652 135.246 46.252C135.246 46.498 135.246 46.8398 135.246 47.2773C135.246 47.6875 135.232 47.9062 135.205 47.9336C134.822 48.125 134.48 48.2207 134.18 48.2207C133.879 48.1934 133.605 48.1113 133.359 47.9746C133.113 47.8105 132.922 47.6328 132.785 47.4414C132.648 47.25 132.58 47.0723 132.58 46.9082ZM138.363 46.9082C138.555 45.6504 138.678 44.0781 138.732 42.1914C138.814 40.3047 138.842 38.2949 138.814 36.1621C138.814 34.0293 138.773 31.8281 138.691 29.5586C138.609 27.2891 138.5 25.1426 138.363 23.1191C138.227 21.0684 138.062 19.2363 137.871 17.623C137.707 16.0098 137.529 14.7383 137.338 13.8086C137.584 13.6445 137.789 13.5215 137.953 13.4395C138.145 13.3301 138.363 13.2754 138.609 13.2754C138.801 13.2754 138.965 13.3164 139.102 13.3984C139.238 13.4531 139.348 13.5898 139.43 13.8086C139.977 19.168 140.346 24.5684 140.537 30.0098C140.756 35.4512 140.92 40.8652 141.029 46.252C141.029 46.498 141.029 46.8398 141.029 47.2773C141.029 47.6875 141.016 47.9062 140.988 47.9336C140.605 48.125 140.264 48.2207 139.963 48.2207C139.662 48.1934 139.389 48.1113 139.143 47.9746C138.896 47.8105 138.705 47.6328 138.568 47.4414C138.432 47.25 138.363 47.0723 138.363 46.9082ZM144.475 40.1406C144.338 40.168 144.133 40.209 143.859 40.2637C143.586 40.3184 143.299 40.332 142.998 40.3047C142.697 40.2773 142.438 40.1953 142.219 40.0586C141.973 39.9219 141.85 39.6895 141.85 39.3613C141.85 39.1699 141.891 39.0332 141.973 38.9512C142.055 38.8691 142.191 38.7461 142.383 38.582C142.984 38.0898 143.49 37.4609 143.9 36.6953C144.338 35.9023 144.734 35.0684 145.09 34.1934C145.445 33.291 145.814 32.4023 146.197 31.5273C146.607 30.625 147.072 29.8184 147.592 29.1074C148.111 28.3965 148.754 27.8223 149.52 27.3848C150.285 26.9473 151.229 26.7422 152.35 26.7695C152.814 26.7695 153.334 26.8789 153.908 27.0977C154.482 27.3164 155.016 27.6172 155.508 28C156 28.3555 156.41 28.793 156.738 29.3125C157.066 29.832 157.23 30.4062 157.23 31.0352C157.367 31.2539 157.23 31.5684 156.82 31.9785C156.438 32.3887 155.904 32.8398 155.221 33.332C154.537 33.7969 153.758 34.2891 152.883 34.8086C152.035 35.3008 151.215 35.7656 150.422 36.2031C149.629 36.6406 148.932 37.0234 148.33 37.3516C147.729 37.6797 147.332 37.9258 147.141 38.0898C147.004 38.3633 146.895 38.6777 146.812 39.0332C146.73 39.3887 146.662 39.7305 146.607 40.0586C146.58 40.3594 146.553 40.6465 146.525 40.9199C146.525 41.166 146.525 41.3574 146.525 41.4941C146.525 42.0137 146.498 42.5879 146.443 43.2168C146.416 43.8457 146.443 44.4473 146.525 45.0215C146.635 45.5684 146.867 46.0332 147.223 46.416C147.578 46.7715 148.18 46.9492 149.027 46.9492C149.93 46.9492 150.777 46.7305 151.57 46.293C152.363 45.8281 153.102 45.2676 153.785 44.6113C154.469 43.9551 155.084 43.2441 155.631 42.4785C156.205 41.7129 156.711 41.002 157.148 40.3457C157.613 39.6621 158.023 39.1016 158.379 38.6641C158.734 38.2266 159.035 38.0078 159.281 38.0078C159.555 38.0078 159.842 38.0625 160.143 38.1719C160.471 38.2539 160.635 38.4727 160.635 38.8281C160.635 39.3203 160.43 39.9082 160.02 40.5918C159.637 41.2754 159.117 42 158.461 42.7656C157.832 43.5312 157.094 44.2969 156.246 45.0625C155.426 45.8008 154.592 46.4707 153.744 47.0723C152.896 47.6465 152.062 48.125 151.242 48.5078C150.422 48.8633 149.697 49.041 149.068 49.041C147.838 49.041 146.908 48.7402 146.279 48.1387C145.65 47.5371 145.199 46.7852 144.926 45.8828C144.68 44.9805 144.543 44.0234 144.516 43.0117C144.516 41.9727 144.502 41.0156 144.475 40.1406ZM152.021 29.0664C151.557 29.0664 151.064 29.2988 150.545 29.7637C150.025 30.2012 149.533 30.748 149.068 31.4043C148.631 32.0332 148.262 32.6895 147.961 33.373C147.688 34.0293 147.551 34.5762 147.551 35.0137C147.961 35.0137 148.549 34.8633 149.314 34.5625C150.107 34.2344 150.887 33.8379 151.652 33.373C152.418 32.9082 153.088 32.416 153.662 31.8965C154.236 31.377 154.523 30.8848 154.523 30.4199C154.523 30.1738 154.428 29.9688 154.236 29.8047C154.045 29.6406 153.812 29.5039 153.539 29.3945C153.293 29.2852 153.033 29.2031 152.76 29.1484C152.486 29.0938 152.24 29.0664 152.021 29.0664ZM162.686 29.2305V28.9023C162.686 28.6289 162.781 28.4375 162.973 28.3281C163.191 28.2188 163.438 28.1641 163.711 28.1641C163.93 28.1641 164.135 28.1914 164.326 28.2461C164.518 28.2734 164.668 28.4238 164.777 28.6973C164.859 29.1074 164.941 29.6816 165.023 30.4199C165.105 31.1309 165.201 31.9238 165.311 32.7988C165.42 33.6738 165.529 34.6035 165.639 35.5879C165.775 36.5449 165.898 37.4609 166.008 38.3359C166.145 39.1836 166.281 39.9492 166.418 40.6328C166.555 41.3164 166.705 41.8359 166.869 42.1914C166.787 39.5664 166.869 37.2969 167.115 35.3828C167.361 33.4414 167.826 31.8691 168.51 30.666C169.221 29.4355 170.178 28.5879 171.381 28.123C172.611 27.6309 174.143 27.5215 175.975 27.7949C176.822 27.7949 177.246 28.2461 177.246 29.1484C177.246 29.5039 177.014 29.75 176.549 29.8867C176.084 29.9961 175.564 30.0781 174.99 30.1328C174.416 30.1602 173.855 30.2012 173.309 30.2559C172.762 30.3105 172.365 30.4473 172.119 30.666C171.135 31.2129 170.438 32.0605 170.027 33.209C169.645 34.3574 169.371 35.7109 169.207 37.2695C169.043 38.8281 168.92 40.5371 168.838 42.3965C168.783 44.2285 168.605 46.1152 168.305 48.0566C168.305 48.3301 168.195 48.5352 167.977 48.6719C167.758 48.8086 167.484 48.877 167.156 48.877C166.855 48.877 166.555 48.8086 166.254 48.6719C165.98 48.5352 165.762 48.3301 165.598 48.0566L162.686 29.2305ZM180.527 40.1406C180.391 40.168 180.186 40.209 179.912 40.2637C179.639 40.3184 179.352 40.332 179.051 40.3047C178.75 40.2773 178.49 40.1953 178.271 40.0586C178.025 39.9219 177.902 39.6895 177.902 39.3613C177.902 39.1699 177.943 39.0332 178.025 38.9512C178.107 38.8691 178.244 38.7461 178.436 38.582C179.037 38.0898 179.543 37.4609 179.953 36.6953C180.391 35.9023 180.787 35.0684 181.143 34.1934C181.498 33.291 181.867 32.4023 182.25 31.5273C182.66 30.625 183.125 29.8184 183.645 29.1074C184.164 28.3965 184.807 27.8223 185.572 27.3848C186.338 26.9473 187.281 26.7422 188.402 26.7695C188.867 26.7695 189.387 26.8789 189.961 27.0977C190.535 27.3164 191.068 27.6172 191.561 28C192.053 28.3555 192.463 28.793 192.791 29.3125C193.119 29.832 193.283 30.4062 193.283 31.0352C193.42 31.2539 193.283 31.5684 192.873 31.9785C192.49 32.3887 191.957 32.8398 191.273 33.332C190.59 33.7969 189.811 34.2891 188.936 34.8086C188.088 35.3008 187.268 35.7656 186.475 36.2031C185.682 36.6406 184.984 37.0234 184.383 37.3516C183.781 37.6797 183.385 37.9258 183.193 38.0898C183.057 38.3633 182.947 38.6777 182.865 39.0332C182.783 39.3887 182.715 39.7305 182.66 40.0586C182.633 40.3594 182.605 40.6465 182.578 40.9199C182.578 41.166 182.578 41.3574 182.578 41.4941C182.578 42.0137 182.551 42.5879 182.496 43.2168C182.469 43.8457 182.496 44.4473 182.578 45.0215C182.688 45.5684 182.92 46.0332 183.275 46.416C183.631 46.7715 184.232 46.9492 185.08 46.9492C185.982 46.9492 186.83 46.7305 187.623 46.293C188.416 45.8281 189.154 45.2676 189.838 44.6113C190.521 43.9551 191.137 43.2441 191.684 42.4785C192.258 41.7129 192.764 41.002 193.201 40.3457C193.666 39.6621 194.076 39.1016 194.432 38.6641C194.787 38.2266 195.088 38.0078 195.334 38.0078C195.607 38.0078 195.895 38.0625 196.195 38.1719C196.523 38.2539 196.688 38.4727 196.688 38.8281C196.688 39.3203 196.482 39.9082 196.072 40.5918C195.689 41.2754 195.17 42 194.514 42.7656C193.885 43.5312 193.146 44.2969 192.299 45.0625C191.479 45.8008 190.645 46.4707 189.797 47.0723C188.949 47.6465 188.115 48.125 187.295 48.5078C186.475 48.8633 185.75 49.041 185.121 49.041C183.891 49.041 182.961 48.7402 182.332 48.1387C181.703 47.5371 181.252 46.7852 180.979 45.8828C180.732 44.9805 180.596 44.0234 180.568 43.0117C180.568 41.9727 180.555 41.0156 180.527 40.1406ZM188.074 29.0664C187.609 29.0664 187.117 29.2988 186.598 29.7637C186.078 30.2012 185.586 30.748 185.121 31.4043C184.684 32.0332 184.314 32.6895 184.014 33.373C183.74 34.0293 183.604 34.5762 183.604 35.0137C184.014 35.0137 184.602 34.8633 185.367 34.5625C186.16 34.2344 186.939 33.8379 187.705 33.373C188.471 32.9082 189.141 32.416 189.715 31.8965C190.289 31.377 190.576 30.8848 190.576 30.4199C190.576 30.1738 190.48 29.9688 190.289 29.8047C190.098 29.6406 189.865 29.5039 189.592 29.3945C189.346 29.2852 189.086 29.2031 188.812 29.1484C188.539 29.0938 188.293 29.0664 188.074 29.0664ZM200.461 48.4668C200.16 44.7754 199.887 41.084 199.641 37.3926C199.422 33.6738 199.176 29.8184 198.902 25.8262C198.902 25.1699 199.258 24.8418 199.969 24.8418H200.297C200.379 24.8418 200.475 24.9512 200.584 25.1699C200.693 25.3887 200.803 25.7988 200.912 26.4004C201.049 26.9746 201.186 27.8633 201.322 29.0664C201.486 30.2422 201.678 31.7871 201.896 33.7012C202.115 35.6152 202.361 38.0078 202.635 40.8789C203.209 39.0195 203.66 37.2148 203.988 35.4648C204.316 33.7148 204.74 32.1289 205.26 30.707C205.779 29.2578 206.504 27.9863 207.434 26.8926C208.391 25.7988 209.758 24.9922 211.535 24.4727C212.52 24.6367 213.312 25.2383 213.914 26.2773C214.516 27.2891 214.994 28.5469 215.35 30.0508C215.705 31.5547 215.951 33.1953 216.088 34.9727C216.225 36.7227 216.307 38.4043 216.334 40.0176C216.361 41.6309 216.375 43.0801 216.375 44.3652C216.375 45.623 216.402 46.5254 216.457 47.0723C216.375 47.291 216.252 47.4824 216.088 47.6465C215.924 47.8105 215.732 47.9336 215.514 48.0156C215.322 48.0703 215.131 48.084 214.939 48.0566C214.748 48.002 214.57 47.8516 214.406 47.6055C214.406 47.3047 214.379 46.6895 214.324 45.7598C214.27 44.8301 214.201 43.75 214.119 42.5195C214.037 41.2617 213.941 39.9355 213.832 38.541C213.75 37.1191 213.668 35.793 213.586 34.5625C213.531 33.3047 213.477 32.2109 213.422 31.2812C213.367 30.3516 213.326 29.7363 213.299 29.4355C212.725 28.4238 212.15 27.8496 211.576 27.7129C211.029 27.5762 210.469 27.7539 209.895 28.2461C209.348 28.7383 208.814 29.4902 208.295 30.502C207.775 31.5137 207.283 32.6621 206.818 33.9473C206.354 35.2051 205.916 36.5312 205.506 37.9258C205.096 39.3203 204.74 40.6738 204.439 41.9863C204.139 43.2715 203.879 44.4473 203.66 45.5137C203.469 46.5527 203.346 47.3594 203.291 47.9336C203.209 48.125 203.031 48.3164 202.758 48.5078C202.512 48.6719 202.238 48.7949 201.938 48.877C201.664 48.959 201.377 48.9863 201.076 48.959C200.803 48.9043 200.598 48.7402 200.461 48.4668Z" fill="#353535"/>
<defs>
<radialGradient id="paint0_radial" cx="0" cy="0" r="1" gradientUnits="userSpaceOnUse" gradientTransform="translate(11.8983 17.0764) scale(2.86229 2.88108)">
<stop stop-color="#91E5F1"/>
<stop offset="1" stop-color="#48CDF1"/>
</radialGradient>
<clipPath id="clip0">
<rect width="25" height="62" fill="white" transform="translate(0 3)"/>
</clipPath>
</defs>
</svg>
