<svg width="795" height="290" viewBox="0 0 795 290" fill="none" xmlns="http://www.w3.org/2000/svg">
<path d="M17.625 203.778C15.2324 185.777 13.7513 167.206 13.1816 148.065C12.612 128.811 12.612 110.24 13.1816 92.3525C12.1562 92.9222 11.2448 93.4349 10.4473 93.8906C9.64974 94.3464 8.68132 94.5742 7.54199 94.5742C6.74447 94.5742 6.00391 94.2324 5.32031 93.5488C4.63672 92.8652 4.29492 92.0107 4.29492 90.9854V90.4727C4.29492 90.3587 4.35189 90.1878 4.46582 89.96C5.37728 88.9346 6.45964 87.1686 7.71289 84.6621C9.08008 82.1556 10.5042 79.7061 11.9854 77.3135C13.4665 74.807 14.8906 72.6423 16.2578 70.8193C17.625 68.8825 18.8213 67.9141 19.8467 67.9141C20.8721 67.9141 21.6126 68.1989 22.0684 68.7686C22.638 69.2243 23.0938 69.7939 23.4355 70.4775C23.7773 71.1611 24.1191 71.9587 24.4609 72.8701C24.9167 73.6676 25.5433 74.2943 26.3408 74.75C29.7588 72.6992 33.5186 70.9333 37.6201 69.4521C41.7217 67.971 45.8232 66.9456 49.9248 66.376C54.1403 65.8063 58.1849 65.7493 62.0586 66.2051C66.0462 66.5469 69.6351 67.5153 72.8252 69.1104C76.0153 70.5915 78.7497 72.7562 81.0283 75.6045C83.307 78.4528 84.7881 82.0417 85.4717 86.3711C85.3577 91.9538 83.7057 97.2516 80.5156 102.265C77.4395 107.164 73.5658 111.664 68.8945 115.766C64.3372 119.753 59.3812 123.342 54.0264 126.532C48.6715 129.608 43.7155 132.286 39.1582 134.564C34.7148 136.843 31.012 138.666 28.0498 140.033C25.2015 141.4 23.8913 142.198 24.1191 142.426V203.778C24.1191 204.69 23.7204 205.316 22.9229 205.658C22.1253 206 21.3848 206.171 20.7012 206.171C19.4479 206.171 18.4225 205.373 17.625 203.778ZM24.1191 85.6875C23.7773 88.9915 23.3216 92.6374 22.752 96.625C22.2962 100.499 21.9544 104.543 21.7266 108.759C21.4987 112.86 21.4987 116.905 21.7266 120.893C22.0684 124.88 22.8659 128.469 24.1191 131.659C29.0182 129.494 34.1452 127.102 39.5 124.481C44.8548 121.747 49.9818 118.671 54.8809 115.253C59.7799 111.835 64.1663 108.075 68.04 103.974C72.0277 99.7581 74.9899 95.0869 76.9268 89.96C76.9268 87.2256 75.9014 84.89 73.8506 82.9531C71.9137 81.0163 69.5212 79.4212 66.6729 78.168C63.8245 76.9147 60.8623 76.0602 57.7861 75.6045C54.8239 75.0348 52.3743 74.75 50.4375 74.75C49.2982 74.75 47.4183 75.0918 44.7979 75.7754C42.2913 76.3451 39.6139 77.1426 36.7656 78.168C34.0312 79.0794 31.4108 80.2188 28.9043 81.5859C26.5117 82.9531 24.9167 84.3203 24.1191 85.6875ZM93.5039 123.627V122.26C93.5039 121.12 93.9027 120.323 94.7002 119.867C95.6117 119.411 96.637 119.184 97.7764 119.184C98.6878 119.184 99.5423 119.298 100.34 119.525C101.137 119.639 101.764 120.266 102.22 121.405C102.562 123.114 102.903 125.507 103.245 128.583C103.587 131.545 103.986 134.849 104.441 138.495C104.897 142.141 105.353 146.015 105.809 150.116C106.378 154.104 106.891 157.921 107.347 161.566C107.916 165.098 108.486 168.288 109.056 171.137C109.625 173.985 110.252 176.15 110.936 177.631C110.594 166.693 110.936 157.237 111.961 149.262C112.986 141.173 114.923 134.621 117.771 129.608C120.734 124.481 124.721 120.95 129.734 119.013C134.861 116.962 141.242 116.506 148.875 117.646C152.407 117.646 154.173 119.525 154.173 123.285C154.173 124.766 153.204 125.792 151.268 126.361C149.331 126.817 147.166 127.159 144.773 127.387C142.381 127.501 140.045 127.672 137.767 127.899C135.488 128.127 133.836 128.697 132.811 129.608C128.709 131.887 125.804 135.419 124.095 140.204C122.5 144.989 121.36 150.629 120.677 157.123C119.993 163.617 119.48 170.738 119.139 178.485C118.911 186.119 118.17 193.98 116.917 202.069C116.917 203.209 116.461 204.063 115.55 204.633C114.638 205.202 113.499 205.487 112.132 205.487C110.879 205.487 109.625 205.202 108.372 204.633C107.233 204.063 106.321 203.209 105.638 202.069L93.5039 123.627ZM162.718 182.587C161.92 177.346 161.521 172.276 161.521 167.377C161.521 162.364 161.806 157.294 162.376 152.167C163.06 147.04 163.971 141.742 165.11 136.273C166.364 130.691 167.788 124.709 169.383 118.329C169.383 117.076 169.725 115.937 170.408 114.911C171.092 113.772 172.003 112.86 173.143 112.177C174.282 111.379 175.478 110.753 176.731 110.297C177.985 109.841 179.181 109.613 180.32 109.613C182.827 109.613 185.105 110.411 187.156 112.006C189.207 113.601 191.03 115.538 192.625 117.816C194.334 120.095 195.758 122.545 196.897 125.165C198.151 127.672 199.176 129.836 199.974 131.659C200.885 135.647 201.512 140.204 201.854 145.331C202.309 150.344 202.366 155.471 202.024 160.712C201.683 165.953 200.885 171.137 199.632 176.264C198.379 181.277 196.613 185.891 194.334 190.106C192.055 194.322 189.093 197.854 185.447 200.702C181.915 203.55 177.7 205.316 172.801 206C170.18 206 168.187 205.146 166.819 203.437C165.452 201.614 164.427 199.449 163.743 196.942C163.174 194.322 162.832 191.701 162.718 189.081C162.718 186.461 162.718 184.296 162.718 182.587ZM171.434 182.074C171.434 183.214 171.434 184.296 171.434 185.321C171.548 186.347 171.661 187.372 171.775 188.397C172.003 189.309 172.231 190.334 172.459 191.474C172.801 192.499 173.2 193.695 173.655 195.062H174.681C177.415 195.062 179.751 194.151 181.688 192.328C183.624 190.505 185.276 188.17 186.644 185.321C188.011 182.359 189.15 179.112 190.062 175.58C190.973 171.934 191.657 168.402 192.112 164.984C192.682 161.452 193.024 158.205 193.138 155.243C193.366 152.167 193.479 149.717 193.479 147.895V144.477C193.479 142.995 193.423 141.343 193.309 139.521C193.195 137.584 192.967 135.647 192.625 133.71C192.397 131.659 191.998 129.836 191.429 128.241C190.859 126.532 190.118 125.165 189.207 124.14C188.296 123.114 187.099 122.602 185.618 122.602C183.112 121.804 180.947 121.975 179.124 123.114C177.415 124.254 175.991 126.19 174.852 128.925C173.826 131.545 173.029 134.792 172.459 138.666C171.889 142.54 171.548 146.812 171.434 151.483C171.32 156.155 171.263 161.111 171.263 166.352C171.377 171.592 171.434 176.833 171.434 182.074ZM221.336 272.821C231.362 272.252 239.223 269.631 244.92 264.96C250.73 260.289 255.06 254.25 257.908 246.845C260.757 239.439 262.465 230.951 263.035 221.381C263.605 211.924 263.662 202.126 263.206 191.986C262.75 181.846 262.067 171.706 261.155 161.566C260.358 151.312 260.016 141.799 260.13 133.026C255.231 147.382 250.617 159.003 246.287 167.89C241.958 176.662 237.913 183.327 234.153 187.885C230.507 192.328 227.146 195.062 224.07 196.088C221.108 196.999 218.488 196.828 216.209 195.575C213.93 194.208 212.05 192.1 210.569 189.252C209.202 186.29 208.234 183.271 207.664 180.194C207.892 174.953 208.917 169.2 210.74 162.934C212.677 156.553 215.127 150.344 218.089 144.306C221.165 138.153 224.697 132.457 228.685 127.216C232.672 121.861 236.888 117.702 241.331 114.74C245.774 111.664 250.389 110.069 255.174 109.955C259.959 109.727 264.573 111.55 269.017 115.424C269.131 115.538 269.301 117.076 269.529 120.038C269.871 122.886 270.213 126.703 270.555 131.488C271.01 136.16 271.466 141.457 271.922 147.382C272.492 153.192 273.004 159.117 273.46 165.155C273.916 171.08 274.314 176.776 274.656 182.245C274.998 187.714 275.34 192.442 275.682 196.43C276.137 202.924 275.853 209.817 274.827 217.108C273.916 224.4 272.435 231.464 270.384 238.3C268.333 245.25 265.713 251.744 262.522 257.782C259.446 263.821 255.857 268.777 251.756 272.65C247.768 276.524 243.268 278.974 238.255 279.999C233.356 281.138 228.115 280.284 222.532 277.436C222.19 277.436 221.678 277.379 220.994 277.265C220.311 277.265 219.741 277.094 219.285 276.752C218.943 276.41 218.886 275.954 219.114 275.385C219.342 274.815 220.083 273.961 221.336 272.821ZM216.551 178.998C217.69 182.53 219.171 184.353 220.994 184.467C222.931 184.467 224.982 183.271 227.146 180.878C229.311 178.371 231.647 174.896 234.153 170.453C236.774 166.01 239.337 161.168 241.844 155.927C244.35 150.686 246.8 145.331 249.192 139.862C251.699 134.28 254.035 129.096 256.199 124.311C256.199 123.057 255.914 121.918 255.345 120.893C254.775 119.753 253.522 119.411 251.585 119.867C248.395 120.551 245.262 122.089 242.186 124.481C239.223 126.874 236.432 129.836 233.812 133.368C231.305 136.786 228.969 140.603 226.805 144.818C224.754 148.92 222.931 153.078 221.336 157.294C219.855 161.396 218.659 165.326 217.747 169.086C216.95 172.846 216.551 176.15 216.551 178.998ZM286.106 123.627V122.26C286.106 121.12 286.505 120.323 287.303 119.867C288.214 119.411 289.24 119.184 290.379 119.184C291.29 119.184 292.145 119.298 292.942 119.525C293.74 119.639 294.367 120.266 294.822 121.405C295.164 123.114 295.506 125.507 295.848 128.583C296.189 131.545 296.588 134.849 297.044 138.495C297.5 142.141 297.955 146.015 298.411 150.116C298.981 154.104 299.493 157.921 299.949 161.566C300.519 165.098 301.089 168.288 301.658 171.137C302.228 173.985 302.854 176.15 303.538 177.631C303.196 166.693 303.538 157.237 304.563 149.262C305.589 141.173 307.526 134.621 310.374 129.608C313.336 124.481 317.324 120.95 322.337 119.013C327.464 116.962 333.844 116.506 341.478 117.646C345.009 117.646 346.775 119.525 346.775 123.285C346.775 124.766 345.807 125.792 343.87 126.361C341.933 126.817 339.769 127.159 337.376 127.387C334.983 127.501 332.648 127.672 330.369 127.899C328.09 128.127 326.438 128.697 325.413 129.608C321.312 131.887 318.406 135.419 316.697 140.204C315.102 144.989 313.963 150.629 313.279 157.123C312.596 163.617 312.083 170.738 311.741 178.485C311.513 186.119 310.773 193.98 309.52 202.069C309.52 203.209 309.064 204.063 308.152 204.633C307.241 205.202 306.102 205.487 304.734 205.487C303.481 205.487 302.228 205.202 300.975 204.633C299.835 204.063 298.924 203.209 298.24 202.069L286.106 123.627ZM404.026 201.557C403.457 198.594 402.944 195.062 402.488 190.961C402.146 186.745 401.748 182.53 401.292 178.314C400.836 173.985 400.267 169.94 399.583 166.181C399.013 162.421 398.102 159.345 396.849 156.952C391.038 168.801 385.911 178.144 381.468 184.979C377.024 191.701 373.094 196.544 369.676 199.506C366.372 202.354 363.58 203.721 361.302 203.607C359.023 203.493 357.143 202.468 355.662 200.531C354.181 198.594 353.099 196.145 352.415 193.183C351.845 190.106 351.447 187.258 351.219 184.638C351.219 182.131 351.788 178.599 352.928 174.042C354.067 169.485 355.605 164.529 357.542 159.174C359.479 153.705 361.757 148.179 364.378 142.597C367.112 137.014 370.018 131.944 373.094 127.387C376.17 122.829 379.36 119.07 382.664 116.107C385.968 113.145 389.272 111.664 392.576 111.664C397.475 110.867 401.064 111.949 403.343 114.911C405.735 117.759 406.191 122.602 404.71 129.438C404.71 136.957 404.995 143.394 405.564 148.749C406.248 154.104 406.932 159.231 407.615 164.13C408.413 169.029 409.096 174.156 409.666 179.511C410.35 184.866 410.691 191.303 410.691 198.822C410.691 200.189 410.521 201.386 410.179 202.411C409.951 203.323 408.584 203.778 406.077 203.778C405.735 203.778 405.28 203.493 404.71 202.924C404.254 202.354 404.026 201.898 404.026 201.557ZM394.798 125.165C393.545 123.342 391.836 123.171 389.671 124.652C387.506 126.133 385.228 128.583 382.835 132.001C380.442 135.419 377.993 139.521 375.486 144.306C372.98 149.091 370.644 153.933 368.479 158.832C366.315 163.731 364.435 168.402 362.84 172.846C361.245 177.175 360.162 180.764 359.593 183.612C359.593 187.714 360.219 190.049 361.473 190.619C362.726 191.075 364.264 190.391 366.087 188.568C367.91 186.745 369.961 184.125 372.239 180.707C374.632 177.289 376.91 173.643 379.075 169.77C381.354 165.896 383.462 162.136 385.398 158.49C387.449 154.844 389.044 151.882 390.184 149.604C391.209 147.211 392.007 144.989 392.576 142.938C393.146 140.888 393.602 138.951 393.943 137.128C394.399 135.191 394.627 133.254 394.627 131.317C394.741 129.381 394.798 127.33 394.798 125.165ZM423.167 197.284C423.965 192.043 424.477 185.492 424.705 177.631C425.047 169.77 425.161 161.396 425.047 152.509C425.047 143.622 424.876 134.451 424.534 124.994C424.192 115.538 423.737 106.594 423.167 98.1631C422.597 89.6182 421.914 81.9847 421.116 75.2627C420.433 68.5407 419.692 63.2428 418.895 59.3691C419.92 58.6855 420.774 58.1729 421.458 57.8311C422.256 57.3753 423.167 57.1475 424.192 57.1475C424.99 57.1475 425.674 57.3184 426.243 57.6602C426.813 57.888 427.269 58.4577 427.61 59.3691C429.889 81.6999 431.427 104.201 432.225 126.874C433.136 149.547 433.82 172.105 434.275 194.55C434.275 195.575 434.275 196.999 434.275 198.822C434.275 200.531 434.218 201.443 434.104 201.557C432.509 202.354 431.085 202.753 429.832 202.753C428.579 202.639 427.439 202.297 426.414 201.728C425.389 201.044 424.591 200.303 424.021 199.506C423.452 198.708 423.167 197.968 423.167 197.284ZM447.264 197.284C448.061 192.043 448.574 185.492 448.802 177.631C449.144 169.77 449.257 161.396 449.144 152.509C449.144 143.622 448.973 134.451 448.631 124.994C448.289 115.538 447.833 106.594 447.264 98.1631C446.694 89.6182 446.01 81.9847 445.213 75.2627C444.529 68.5407 443.789 63.2428 442.991 59.3691C444.017 58.6855 444.871 58.1729 445.555 57.8311C446.352 57.3753 447.264 57.1475 448.289 57.1475C449.087 57.1475 449.77 57.3184 450.34 57.6602C450.91 57.888 451.365 58.4577 451.707 59.3691C453.986 81.6999 455.524 104.201 456.321 126.874C457.233 149.547 457.916 172.105 458.372 194.55C458.372 195.575 458.372 196.999 458.372 198.822C458.372 200.531 458.315 201.443 458.201 201.557C456.606 202.354 455.182 202.753 453.929 202.753C452.675 202.639 451.536 202.297 450.511 201.728C449.485 201.044 448.688 200.303 448.118 199.506C447.549 198.708 447.264 197.968 447.264 197.284ZM472.728 169.086C472.158 169.2 471.303 169.371 470.164 169.599C469.025 169.826 467.828 169.883 466.575 169.77C465.322 169.656 464.24 169.314 463.328 168.744C462.303 168.174 461.79 167.206 461.79 165.839C461.79 165.041 461.961 164.472 462.303 164.13C462.645 163.788 463.214 163.275 464.012 162.592C466.518 160.541 468.626 157.921 470.335 154.73C472.158 151.426 473.81 147.951 475.291 144.306C476.772 140.546 478.31 136.843 479.905 133.197C481.614 129.438 483.551 126.076 485.716 123.114C487.881 120.152 490.558 117.759 493.748 115.937C496.938 114.114 500.869 113.259 505.54 113.373C507.477 113.373 509.642 113.829 512.034 114.74C514.427 115.652 516.648 116.905 518.699 118.5C520.75 119.981 522.459 121.804 523.826 123.969C525.193 126.133 525.877 128.526 525.877 131.146C526.447 132.058 525.877 133.368 524.168 135.077C522.573 136.786 520.351 138.666 517.503 140.717C514.655 142.654 511.408 144.704 507.762 146.869C504.23 148.92 500.812 150.857 497.508 152.68C494.204 154.503 491.299 156.098 488.792 157.465C486.285 158.832 484.633 159.857 483.836 160.541C483.266 161.68 482.811 162.991 482.469 164.472C482.127 165.953 481.842 167.377 481.614 168.744C481.5 169.997 481.386 171.194 481.272 172.333C481.272 173.358 481.272 174.156 481.272 174.726C481.272 176.89 481.159 179.283 480.931 181.903C480.817 184.524 480.931 187.03 481.272 189.423C481.728 191.701 482.697 193.638 484.178 195.233C485.659 196.715 488.165 197.455 491.697 197.455C495.457 197.455 498.989 196.544 502.293 194.721C505.597 192.784 508.673 190.448 511.521 187.714C514.37 184.979 516.933 182.017 519.212 178.827C521.604 175.637 523.712 172.675 525.535 169.94C527.472 167.092 529.181 164.757 530.662 162.934C532.143 161.111 533.396 160.199 534.422 160.199C535.561 160.199 536.757 160.427 538.011 160.883C539.378 161.225 540.062 162.136 540.062 163.617C540.062 165.668 539.207 168.118 537.498 170.966C535.903 173.814 533.738 176.833 531.004 180.023C528.383 183.214 525.307 186.404 521.775 189.594C518.357 192.67 514.882 195.461 511.351 197.968C507.819 200.36 504.344 202.354 500.926 203.949C497.508 205.43 494.489 206.171 491.868 206.171C486.741 206.171 482.868 204.918 480.247 202.411C477.627 199.905 475.747 196.771 474.607 193.012C473.582 189.252 473.012 185.264 472.898 181.049C472.898 176.719 472.841 172.732 472.728 169.086ZM504.173 122.943C502.236 122.943 500.185 123.912 498.021 125.849C495.856 127.672 493.805 129.95 491.868 132.685C490.045 135.305 488.507 138.039 487.254 140.888C486.115 143.622 485.545 145.901 485.545 147.724C487.254 147.724 489.703 147.097 492.894 145.844C496.198 144.477 499.445 142.825 502.635 140.888C505.825 138.951 508.616 136.9 511.009 134.735C513.401 132.571 514.598 130.52 514.598 128.583C514.598 127.558 514.199 126.703 513.401 126.02C512.604 125.336 511.635 124.766 510.496 124.311C509.471 123.855 508.388 123.513 507.249 123.285C506.11 123.057 505.084 122.943 504.173 122.943ZM548.606 123.627V122.26C548.606 121.12 549.005 120.323 549.803 119.867C550.714 119.411 551.74 119.184 552.879 119.184C553.79 119.184 554.645 119.298 555.442 119.525C556.24 119.639 556.867 120.266 557.322 121.405C557.664 123.114 558.006 125.507 558.348 128.583C558.689 131.545 559.088 134.849 559.544 138.495C560 142.141 560.455 146.015 560.911 150.116C561.481 154.104 561.993 157.921 562.449 161.566C563.019 165.098 563.589 168.288 564.158 171.137C564.728 173.985 565.354 176.15 566.038 177.631C565.696 166.693 566.038 157.237 567.063 149.262C568.089 141.173 570.026 134.621 572.874 129.608C575.836 124.481 579.824 120.95 584.837 119.013C589.964 116.962 596.344 116.506 603.978 117.646C607.509 117.646 609.275 119.525 609.275 123.285C609.275 124.766 608.307 125.792 606.37 126.361C604.433 126.817 602.269 127.159 599.876 127.387C597.483 127.501 595.148 127.672 592.869 127.899C590.59 128.127 588.938 128.697 587.913 129.608C583.812 131.887 580.906 135.419 579.197 140.204C577.602 144.989 576.463 150.629 575.779 157.123C575.096 163.617 574.583 170.738 574.241 178.485C574.013 186.119 573.273 193.98 572.02 202.069C572.02 203.209 571.564 204.063 570.652 204.633C569.741 205.202 568.602 205.487 567.234 205.487C565.981 205.487 564.728 205.202 563.475 204.633C562.335 204.063 561.424 203.209 560.74 202.069L548.606 123.627ZM622.947 169.086C622.378 169.2 621.523 169.371 620.384 169.599C619.244 169.826 618.048 169.883 616.795 169.77C615.542 169.656 614.459 169.314 613.548 168.744C612.522 168.174 612.01 167.206 612.01 165.839C612.01 165.041 612.181 164.472 612.522 164.13C612.864 163.788 613.434 163.275 614.231 162.592C616.738 160.541 618.846 157.921 620.555 154.73C622.378 151.426 624.03 147.951 625.511 144.306C626.992 140.546 628.53 136.843 630.125 133.197C631.834 129.438 633.771 126.076 635.936 123.114C638.1 120.152 640.778 117.759 643.968 115.937C647.158 114.114 651.089 113.259 655.76 113.373C657.697 113.373 659.861 113.829 662.254 114.74C664.646 115.652 666.868 116.905 668.919 118.5C670.97 119.981 672.679 121.804 674.046 123.969C675.413 126.133 676.097 128.526 676.097 131.146C676.666 132.058 676.097 133.368 674.388 135.077C672.793 136.786 670.571 138.666 667.723 140.717C664.874 142.654 661.627 144.704 657.981 146.869C654.45 148.92 651.032 150.857 647.728 152.68C644.424 154.503 641.518 156.098 639.012 157.465C636.505 158.832 634.853 159.857 634.056 160.541C633.486 161.68 633.03 162.991 632.688 164.472C632.347 165.953 632.062 167.377 631.834 168.744C631.72 169.997 631.606 171.194 631.492 172.333C631.492 173.358 631.492 174.156 631.492 174.726C631.492 176.89 631.378 179.283 631.15 181.903C631.036 184.524 631.15 187.03 631.492 189.423C631.948 191.701 632.916 193.638 634.397 195.233C635.879 196.715 638.385 197.455 641.917 197.455C645.677 197.455 649.209 196.544 652.513 194.721C655.817 192.784 658.893 190.448 661.741 187.714C664.59 184.979 667.153 182.017 669.432 178.827C671.824 175.637 673.932 172.675 675.755 169.94C677.692 167.092 679.401 164.757 680.882 162.934C682.363 161.111 683.616 160.199 684.642 160.199C685.781 160.199 686.977 160.427 688.23 160.883C689.598 161.225 690.281 162.136 690.281 163.617C690.281 165.668 689.427 168.118 687.718 170.966C686.123 173.814 683.958 176.833 681.224 180.023C678.603 183.214 675.527 186.404 671.995 189.594C668.577 192.67 665.102 195.461 661.57 197.968C658.038 200.36 654.563 202.354 651.146 203.949C647.728 205.43 644.708 206.171 642.088 206.171C636.961 206.171 633.087 204.918 630.467 202.411C627.846 199.905 625.966 196.771 624.827 193.012C623.802 189.252 623.232 185.264 623.118 181.049C623.118 176.719 623.061 172.732 622.947 169.086ZM654.393 122.943C652.456 122.943 650.405 123.912 648.24 125.849C646.076 127.672 644.025 129.95 642.088 132.685C640.265 135.305 638.727 138.039 637.474 140.888C636.334 143.622 635.765 145.901 635.765 147.724C637.474 147.724 639.923 147.097 643.113 145.844C646.417 144.477 649.664 142.825 652.854 140.888C656.045 138.951 658.836 136.9 661.229 134.735C663.621 132.571 664.817 130.52 664.817 128.583C664.817 127.558 664.419 126.703 663.621 126.02C662.824 125.336 661.855 124.766 660.716 124.311C659.69 123.855 658.608 123.513 657.469 123.285C656.329 123.057 655.304 122.943 654.393 122.943ZM706.004 203.778C704.751 188.397 703.611 173.017 702.586 157.636C701.674 142.141 700.649 126.076 699.51 109.442C699.51 106.708 700.991 105.341 703.953 105.341H705.32C705.662 105.341 706.061 105.797 706.517 106.708C706.972 107.619 707.428 109.328 707.884 111.835C708.453 114.228 709.023 117.93 709.593 122.943C710.276 127.842 711.074 134.28 711.985 142.255C712.897 150.23 713.922 160.199 715.062 172.162C717.454 164.415 719.334 156.895 720.701 149.604C722.068 142.312 723.834 135.704 725.999 129.779C728.164 123.741 731.183 118.443 735.057 113.886C739.044 109.328 744.741 105.967 752.146 103.803C756.248 104.486 759.552 106.993 762.059 111.322C764.565 115.538 766.559 120.779 768.04 127.045C769.521 133.311 770.547 140.147 771.116 147.553C771.686 154.844 772.028 161.851 772.142 168.573C772.256 175.295 772.312 181.334 772.312 186.688C772.312 191.929 772.426 195.689 772.654 197.968C772.312 198.879 771.8 199.677 771.116 200.36C770.433 201.044 769.635 201.557 768.724 201.898C767.926 202.126 767.129 202.183 766.331 202.069C765.534 201.841 764.793 201.215 764.109 200.189C764.109 198.936 763.995 196.373 763.768 192.499C763.54 188.625 763.255 184.125 762.913 178.998C762.571 173.757 762.173 168.231 761.717 162.421C761.375 156.496 761.033 150.971 760.691 145.844C760.464 140.603 760.236 136.046 760.008 132.172C759.78 128.298 759.609 125.735 759.495 124.481C757.103 120.266 754.71 117.873 752.317 117.304C750.039 116.734 747.703 117.475 745.311 119.525C743.032 121.576 740.81 124.709 738.646 128.925C736.481 133.14 734.43 137.925 732.493 143.28C730.556 148.521 728.733 154.047 727.024 159.857C725.315 165.668 723.834 171.308 722.581 176.776C721.328 182.131 720.245 187.03 719.334 191.474C718.536 195.803 718.024 199.164 717.796 201.557C717.454 202.354 716.714 203.152 715.574 203.949C714.549 204.633 713.41 205.146 712.156 205.487C711.017 205.829 709.821 205.943 708.567 205.829C707.428 205.601 706.574 204.918 706.004 203.778Z" fill="#353535"/>
<path d="M287.596 258.448C287.508 252.909 287.399 248.176 287.269 244.25C287.181 240.281 287.094 236.944 287.007 234.239C286.92 231.535 286.811 229.397 286.68 227.827C286.592 226.213 286.527 224.926 286.483 223.967C286.44 223.007 286.396 222.331 286.353 221.938C286.309 221.502 286.287 221.088 286.287 220.695C286.287 219.954 286.505 219.496 286.941 219.321C287.378 219.103 287.923 218.994 288.577 218.994C289.319 218.994 289.886 219.147 290.278 219.452C290.715 219.714 290.933 220.434 290.933 221.611L292.176 256.812C292.219 256.812 292.438 256.769 292.83 256.682C293.223 256.594 293.681 256.464 294.204 256.289C294.728 256.115 295.273 255.94 295.84 255.766C296.407 255.548 296.865 255.351 297.214 255.177C297.737 254.959 298.522 254.61 299.569 254.13C300.616 253.65 301.794 253.105 303.103 252.494C304.411 251.883 305.785 251.251 307.225 250.597C308.708 249.899 310.104 249.266 311.412 248.699C312.764 248.089 313.942 247.543 314.945 247.063C315.992 246.54 316.777 246.169 317.301 245.951H318.086C318.348 245.951 318.609 245.973 318.871 246.017C319.133 246.06 319.351 246.169 319.525 246.344C319.7 246.518 319.809 246.78 319.853 247.129C319.853 247.565 319.765 247.936 319.591 248.241C319.46 248.547 319.264 248.896 319.002 249.288C316.428 249.768 313.898 250.64 311.412 251.905C308.969 253.17 306.527 254.479 304.084 255.831C301.685 257.183 299.242 258.383 296.756 259.43C294.313 260.477 291.805 261 289.231 261C288.141 261 287.596 260.149 287.596 258.448ZM323.975 246.867C323.757 246.911 323.429 246.976 322.993 247.063C322.557 247.151 322.099 247.173 321.619 247.129C321.139 247.085 320.725 246.954 320.376 246.736C319.983 246.518 319.787 246.147 319.787 245.624C319.787 245.319 319.853 245.101 319.983 244.97C320.114 244.839 320.332 244.643 320.638 244.381C321.597 243.596 322.404 242.592 323.059 241.371C323.757 240.106 324.389 238.776 324.956 237.38C325.523 235.94 326.112 234.523 326.723 233.127C327.377 231.688 328.118 230.401 328.947 229.267C329.776 228.132 330.801 227.216 332.022 226.519C333.244 225.821 334.749 225.493 336.537 225.537C337.279 225.537 338.107 225.712 339.023 226.061C339.939 226.41 340.79 226.889 341.575 227.5C342.36 228.067 343.015 228.765 343.538 229.594C344.062 230.423 344.323 231.339 344.323 232.342C344.541 232.691 344.323 233.192 343.669 233.847C343.058 234.501 342.208 235.221 341.117 236.006C340.027 236.747 338.784 237.533 337.388 238.361C336.035 239.146 334.727 239.888 333.462 240.586C332.197 241.284 331.085 241.895 330.125 242.418C329.165 242.941 328.533 243.334 328.228 243.596C328.009 244.032 327.835 244.534 327.704 245.101C327.573 245.668 327.464 246.213 327.377 246.736C327.333 247.216 327.29 247.674 327.246 248.11C327.246 248.503 327.246 248.808 327.246 249.026C327.246 249.855 327.202 250.771 327.115 251.774C327.072 252.778 327.115 253.737 327.246 254.653C327.421 255.526 327.791 256.267 328.358 256.878C328.925 257.445 329.885 257.729 331.237 257.729C332.677 257.729 334.029 257.38 335.294 256.682C336.559 255.94 337.737 255.046 338.827 253.999C339.918 252.952 340.899 251.818 341.771 250.597C342.688 249.375 343.494 248.241 344.192 247.194C344.934 246.104 345.588 245.21 346.155 244.512C346.722 243.814 347.202 243.465 347.595 243.465C348.031 243.465 348.489 243.552 348.969 243.727C349.492 243.857 349.754 244.206 349.754 244.773C349.754 245.559 349.427 246.496 348.772 247.587C348.162 248.677 347.333 249.833 346.286 251.055C345.283 252.276 344.105 253.497 342.753 254.719C341.444 255.896 340.114 256.965 338.762 257.925C337.41 258.841 336.079 259.604 334.771 260.215C333.462 260.782 332.306 261.065 331.303 261.065C329.34 261.065 327.857 260.586 326.854 259.626C325.85 258.666 325.131 257.467 324.694 256.027C324.302 254.588 324.084 253.061 324.04 251.447C324.04 249.79 324.018 248.263 323.975 246.867ZM336.014 229.201C335.272 229.201 334.487 229.572 333.658 230.313C332.829 231.011 332.044 231.884 331.303 232.931C330.605 233.934 330.016 234.981 329.536 236.071C329.1 237.118 328.882 237.991 328.882 238.688C329.536 238.688 330.474 238.449 331.695 237.969C332.96 237.445 334.203 236.813 335.425 236.071C336.646 235.33 337.715 234.545 338.631 233.716C339.547 232.887 340.005 232.102 340.005 231.36C340.005 230.968 339.852 230.641 339.547 230.379C339.242 230.117 338.871 229.899 338.435 229.725C338.042 229.55 337.628 229.419 337.191 229.332C336.755 229.245 336.363 229.201 336.014 229.201ZM354.923 246.867C354.705 246.911 354.378 246.976 353.941 247.063C353.505 247.151 353.047 247.173 352.567 247.129C352.088 247.085 351.673 246.954 351.324 246.736C350.932 246.518 350.735 246.147 350.735 245.624C350.735 245.319 350.801 245.101 350.932 244.97C351.062 244.839 351.281 244.643 351.586 244.381C352.546 243.596 353.353 242.592 354.007 241.371C354.705 240.106 355.337 238.776 355.904 237.38C356.471 235.94 357.06 234.523 357.671 233.127C358.325 231.688 359.067 230.401 359.896 229.267C360.724 228.132 361.749 227.216 362.971 226.519C364.192 225.821 365.697 225.493 367.485 225.537C368.227 225.537 369.056 225.712 369.972 226.061C370.888 226.41 371.738 226.889 372.523 227.5C373.309 228.067 373.963 228.765 374.486 229.594C375.01 230.423 375.271 231.339 375.271 232.342C375.49 232.691 375.271 233.192 374.617 233.847C374.007 234.501 373.156 235.221 372.065 236.006C370.975 236.747 369.732 237.533 368.336 238.361C366.984 239.146 365.675 239.888 364.41 240.586C363.145 241.284 362.033 241.895 361.073 242.418C360.114 242.941 359.481 243.334 359.176 243.596C358.958 244.032 358.783 244.534 358.652 245.101C358.521 245.668 358.412 246.213 358.325 246.736C358.282 247.216 358.238 247.674 358.194 248.11C358.194 248.503 358.194 248.808 358.194 249.026C358.194 249.855 358.151 250.771 358.063 251.774C358.02 252.778 358.063 253.737 358.194 254.653C358.369 255.526 358.74 256.267 359.307 256.878C359.874 257.445 360.833 257.729 362.186 257.729C363.625 257.729 364.977 257.38 366.242 256.682C367.507 255.94 368.685 255.046 369.775 253.999C370.866 252.952 371.847 251.818 372.72 250.597C373.636 249.375 374.443 248.241 375.141 247.194C375.882 246.104 376.536 245.21 377.104 244.512C377.671 243.814 378.15 243.465 378.543 243.465C378.979 243.465 379.437 243.552 379.917 243.727C380.44 243.857 380.702 244.206 380.702 244.773C380.702 245.559 380.375 246.496 379.721 247.587C379.11 248.677 378.281 249.833 377.234 251.055C376.231 252.276 375.053 253.497 373.701 254.719C372.393 255.896 371.062 256.965 369.71 257.925C368.358 258.841 367.027 259.604 365.719 260.215C364.41 260.782 363.254 261.065 362.251 261.065C360.288 261.065 358.805 260.586 357.802 259.626C356.799 258.666 356.079 257.467 355.643 256.027C355.25 254.588 355.032 253.061 354.988 251.447C354.988 249.79 354.966 248.263 354.923 246.867ZM366.962 229.201C366.22 229.201 365.435 229.572 364.606 230.313C363.778 231.011 362.993 231.884 362.251 232.931C361.553 233.934 360.964 234.981 360.484 236.071C360.048 237.118 359.83 237.991 359.83 238.688C360.484 238.688 361.422 238.449 362.644 237.969C363.909 237.445 365.152 236.813 366.373 236.071C367.594 235.33 368.663 234.545 369.579 233.716C370.495 232.887 370.953 232.102 370.953 231.36C370.953 230.968 370.8 230.641 370.495 230.379C370.19 230.117 369.819 229.899 369.383 229.725C368.99 229.55 368.576 229.419 368.14 229.332C367.703 229.245 367.311 229.201 366.962 229.201ZM383.974 229.463V228.939C383.974 228.503 384.126 228.198 384.432 228.023C384.781 227.849 385.173 227.762 385.609 227.762C385.958 227.762 386.285 227.805 386.591 227.893C386.896 227.936 387.136 228.176 387.311 228.612C387.441 229.267 387.572 230.183 387.703 231.36C387.834 232.494 387.987 233.759 388.161 235.155C388.336 236.551 388.51 238.034 388.685 239.604C388.903 241.131 389.099 242.592 389.273 243.988C389.492 245.34 389.71 246.562 389.928 247.652C390.146 248.743 390.386 249.572 390.647 250.139C390.517 245.951 390.647 242.331 391.04 239.277C391.433 236.18 392.174 233.672 393.265 231.753C394.399 229.79 395.925 228.438 397.845 227.696C399.808 226.911 402.25 226.737 405.173 227.173C406.525 227.173 407.201 227.893 407.201 229.332C407.201 229.899 406.83 230.292 406.089 230.51C405.347 230.684 404.519 230.815 403.603 230.902C402.687 230.946 401.792 231.011 400.92 231.099C400.048 231.186 399.415 231.404 399.022 231.753C397.452 232.625 396.34 233.978 395.686 235.81C395.075 237.642 394.639 239.801 394.377 242.287C394.115 244.773 393.919 247.5 393.788 250.466C393.701 253.388 393.417 256.398 392.938 259.495C392.938 259.931 392.763 260.258 392.414 260.477C392.065 260.695 391.629 260.804 391.105 260.804C390.626 260.804 390.146 260.695 389.666 260.477C389.23 260.258 388.881 259.931 388.619 259.495L383.974 229.463ZM440.897 278.208C441.377 273.628 441.639 269.266 441.683 265.122C441.77 261.022 441.748 256.965 441.617 252.952C441.53 248.939 441.377 244.882 441.159 240.782C440.941 236.682 440.81 232.342 440.767 227.762C440.897 227.151 441.05 226.693 441.225 226.388C441.443 226.039 441.988 225.951 442.86 226.126C443.776 226.344 444.322 226.868 444.496 227.696C444.671 228.481 444.714 229.376 444.627 230.379C444.54 231.382 444.409 232.385 444.234 233.389C444.06 234.392 444.06 235.199 444.234 235.81C445.63 234.806 447.113 233.759 448.684 232.669C450.254 231.578 451.89 230.619 453.591 229.79C455.292 228.918 457.059 228.285 458.891 227.893C460.723 227.456 462.555 227.435 464.387 227.827C466.655 228.351 468.225 229.136 469.098 230.183C470.014 231.186 470.363 232.364 470.145 233.716C469.97 235.024 469.359 236.486 468.312 238.1C467.266 239.67 465.979 241.262 464.452 242.876C462.925 244.49 461.224 246.082 459.349 247.652C457.473 249.223 455.641 250.684 453.853 252.036C452.064 253.345 450.385 254.501 448.814 255.504C447.288 256.507 446.066 257.249 445.15 257.729C445.107 258.252 445.041 259.081 444.954 260.215C444.91 261.305 444.845 262.549 444.758 263.944C444.714 265.34 444.649 266.801 444.562 268.328C444.518 269.855 444.452 271.316 444.365 272.712C444.322 274.108 444.256 275.351 444.169 276.441C444.125 277.532 444.104 278.339 444.104 278.862C444.016 278.906 443.864 278.95 443.646 278.993C443.427 279.037 443.166 279.059 442.86 279.059C442.555 279.102 442.271 279.124 442.01 279.124C441.748 279.168 441.574 279.168 441.486 279.124C441.355 279.124 441.225 278.993 441.094 278.731C440.963 278.513 440.897 278.339 440.897 278.208ZM444.562 242.353C444.431 242.963 444.387 243.727 444.431 244.643C444.518 245.515 444.605 246.453 444.692 247.456C444.823 248.416 444.954 249.354 445.085 250.27C445.216 251.186 445.303 251.971 445.347 252.625C447.004 251.36 448.924 250.073 451.104 248.765C453.329 247.456 455.466 246.038 457.517 244.512C459.61 242.985 461.464 241.284 463.078 239.408C464.692 237.533 465.761 235.417 466.284 233.062C466.459 232.146 466.371 231.535 466.022 231.229C465.717 230.881 465.172 230.641 464.387 230.51C462.729 230.161 460.832 230.292 458.694 230.902C456.557 231.469 454.485 232.32 452.479 233.454C450.516 234.588 448.793 235.94 447.31 237.511C445.826 239.081 444.91 240.695 444.562 242.353ZM473.023 229.463V228.939C473.023 228.503 473.176 228.198 473.481 228.023C473.83 227.849 474.223 227.762 474.659 227.762C475.008 227.762 475.335 227.805 475.641 227.893C475.946 227.936 476.186 228.176 476.36 228.612C476.491 229.267 476.622 230.183 476.753 231.36C476.884 232.494 477.036 233.759 477.211 235.155C477.385 236.551 477.56 238.034 477.734 239.604C477.952 241.131 478.149 242.592 478.323 243.988C478.541 245.34 478.759 246.562 478.978 247.652C479.196 248.743 479.436 249.572 479.697 250.139C479.566 245.951 479.697 242.331 480.09 239.277C480.482 236.18 481.224 233.672 482.314 231.753C483.449 229.79 484.975 228.438 486.895 227.696C488.857 226.911 491.3 226.737 494.223 227.173C495.575 227.173 496.251 227.893 496.251 229.332C496.251 229.899 495.88 230.292 495.139 230.51C494.397 230.684 493.568 230.815 492.652 230.902C491.736 230.946 490.842 231.011 489.97 231.099C489.097 231.186 488.465 231.404 488.072 231.753C486.502 232.625 485.39 233.978 484.735 235.81C484.125 237.642 483.688 239.801 483.427 242.287C483.165 244.773 482.969 247.5 482.838 250.466C482.751 253.388 482.467 256.398 481.987 259.495C481.987 259.931 481.813 260.258 481.464 260.477C481.115 260.695 480.679 260.804 480.155 260.804C479.675 260.804 479.196 260.695 478.716 260.477C478.28 260.258 477.931 259.931 477.669 259.495L473.023 229.463ZM499.522 252.036C499.217 250.03 499.064 248.089 499.064 246.213C499.064 244.294 499.174 242.353 499.392 240.39C499.653 238.427 500.002 236.398 500.438 234.305C500.918 232.167 501.464 229.877 502.074 227.435C502.074 226.955 502.205 226.519 502.467 226.126C502.729 225.69 503.077 225.341 503.514 225.079C503.95 224.774 504.408 224.534 504.888 224.359C505.368 224.185 505.826 224.098 506.262 224.098C507.221 224.098 508.094 224.403 508.879 225.014C509.664 225.624 510.362 226.366 510.973 227.238C511.627 228.111 512.172 229.049 512.608 230.052C513.088 231.011 513.481 231.84 513.786 232.538C514.135 234.065 514.375 235.81 514.506 237.772C514.68 239.692 514.702 241.655 514.571 243.661C514.44 245.668 514.135 247.652 513.655 249.615C513.175 251.535 512.499 253.301 511.627 254.915C510.755 256.529 509.62 257.881 508.225 258.972C506.872 260.062 505.258 260.738 503.383 261C502.38 261 501.616 260.673 501.093 260.019C500.569 259.321 500.177 258.492 499.915 257.532C499.697 256.529 499.566 255.526 499.522 254.522C499.522 253.519 499.522 252.69 499.522 252.036ZM502.859 251.84C502.859 252.276 502.859 252.69 502.859 253.083C502.903 253.476 502.947 253.868 502.99 254.261C503.077 254.61 503.165 255.002 503.252 255.438C503.383 255.831 503.535 256.289 503.71 256.812H504.103C505.149 256.812 506.044 256.464 506.785 255.766C507.527 255.068 508.159 254.174 508.683 253.083C509.206 251.949 509.642 250.706 509.991 249.354C510.34 247.958 510.602 246.605 510.776 245.297C510.994 243.945 511.125 242.701 511.169 241.567C511.256 240.39 511.3 239.452 511.3 238.754V237.445C511.3 236.878 511.278 236.246 511.234 235.548C511.191 234.806 511.104 234.065 510.973 233.323C510.885 232.538 510.733 231.84 510.515 231.229C510.297 230.575 510.013 230.052 509.664 229.659C509.315 229.267 508.857 229.07 508.29 229.07C507.33 228.765 506.502 228.83 505.804 229.267C505.149 229.703 504.604 230.444 504.168 231.491C503.775 232.494 503.47 233.738 503.252 235.221C503.034 236.704 502.903 238.34 502.859 240.128C502.816 241.916 502.794 243.814 502.794 245.82C502.838 247.827 502.859 249.833 502.859 251.84ZM521.965 286.583C525.803 286.365 528.813 285.362 530.994 283.573C533.219 281.785 534.876 279.473 535.967 276.638C537.057 273.802 537.712 270.553 537.93 266.889C538.148 263.268 538.17 259.517 537.995 255.635C537.821 251.753 537.559 247.87 537.21 243.988C536.905 240.062 536.774 236.42 536.817 233.062C534.942 238.558 533.175 243.007 531.518 246.409C529.86 249.768 528.312 252.32 526.872 254.064C525.476 255.766 524.189 256.812 523.012 257.205C521.878 257.554 520.874 257.489 520.002 257.009C519.13 256.485 518.41 255.678 517.843 254.588C517.319 253.454 516.949 252.298 516.73 251.12C516.818 249.114 517.21 246.911 517.908 244.512C518.65 242.069 519.588 239.692 520.722 237.38C521.899 235.024 523.252 232.843 524.778 230.837C526.305 228.787 527.919 227.195 529.62 226.061C531.321 224.883 533.088 224.272 534.92 224.229C536.752 224.141 538.519 224.839 540.22 226.322C540.263 226.366 540.329 226.955 540.416 228.089C540.547 229.179 540.678 230.641 540.809 232.473C540.983 234.261 541.158 236.289 541.332 238.558C541.55 240.782 541.746 243.05 541.921 245.362C542.095 247.631 542.248 249.812 542.379 251.905C542.51 253.999 542.641 255.809 542.771 257.336C542.946 259.822 542.837 262.461 542.444 265.253C542.095 268.045 541.528 270.749 540.743 273.366C539.958 276.027 538.955 278.513 537.733 280.825C536.556 283.137 535.182 285.035 533.611 286.518C532.085 288.001 530.362 288.938 528.442 289.331C526.567 289.767 524.56 289.44 522.423 288.35C522.292 288.35 522.096 288.328 521.834 288.284C521.572 288.284 521.354 288.219 521.18 288.088C521.049 287.957 521.027 287.783 521.114 287.564C521.201 287.346 521.485 287.019 521.965 286.583ZM520.133 250.662C520.569 252.014 521.136 252.712 521.834 252.756C522.576 252.756 523.361 252.298 524.189 251.382C525.018 250.422 525.912 249.092 526.872 247.391C527.875 245.689 528.857 243.836 529.816 241.829C530.776 239.823 531.714 237.772 532.63 235.679C533.59 233.541 534.484 231.557 535.312 229.725C535.312 229.245 535.203 228.809 534.985 228.416C534.767 227.98 534.287 227.849 533.546 228.023C532.325 228.285 531.125 228.874 529.947 229.79C528.813 230.706 527.744 231.84 526.741 233.192C525.782 234.501 524.887 235.962 524.059 237.576C523.273 239.146 522.576 240.739 521.965 242.353C521.398 243.923 520.94 245.428 520.591 246.867C520.285 248.307 520.133 249.572 520.133 250.662ZM546.763 229.463V228.939C546.763 228.503 546.915 228.198 547.221 228.023C547.57 227.849 547.962 227.762 548.398 227.762C548.747 227.762 549.075 227.805 549.38 227.893C549.685 227.936 549.925 228.176 550.1 228.612C550.23 229.267 550.361 230.183 550.492 231.36C550.623 232.494 550.776 233.759 550.95 235.155C551.125 236.551 551.299 238.034 551.474 239.604C551.692 241.131 551.888 242.592 552.062 243.988C552.281 245.34 552.499 246.562 552.717 247.652C552.935 248.743 553.175 249.572 553.437 250.139C553.306 245.951 553.437 242.331 553.829 239.277C554.222 236.18 554.963 233.672 556.054 231.753C557.188 229.79 558.715 228.438 560.634 227.696C562.597 226.911 565.039 226.737 567.962 227.173C569.314 227.173 569.99 227.893 569.99 229.332C569.99 229.899 569.619 230.292 568.878 230.51C568.136 230.684 567.308 230.815 566.392 230.902C565.476 230.946 564.581 231.011 563.709 231.099C562.837 231.186 562.204 231.404 561.812 231.753C560.241 232.625 559.129 233.978 558.475 235.81C557.864 237.642 557.428 239.801 557.166 242.287C556.904 244.773 556.708 247.5 556.577 250.466C556.49 253.388 556.206 256.398 555.727 259.495C555.727 259.931 555.552 260.258 555.203 260.477C554.854 260.695 554.418 260.804 553.895 260.804C553.415 260.804 552.935 260.695 552.455 260.477C552.019 260.258 551.67 259.931 551.408 259.495L546.763 229.463ZM591.909 259.299C591.691 258.165 591.495 256.812 591.32 255.242C591.189 253.628 591.037 252.014 590.862 250.4C590.688 248.743 590.47 247.194 590.208 245.755C589.99 244.315 589.641 243.138 589.161 242.222C586.937 246.758 584.974 250.335 583.272 252.952C581.571 255.526 580.066 257.38 578.758 258.514C577.493 259.604 576.424 260.128 575.552 260.084C574.679 260.04 573.96 259.648 573.393 258.906C572.826 258.165 572.411 257.227 572.149 256.093C571.931 254.915 571.779 253.825 571.691 252.821C571.691 251.862 571.91 250.509 572.346 248.765C572.782 247.02 573.371 245.122 574.112 243.072C574.854 240.979 575.726 238.863 576.729 236.726C577.776 234.588 578.889 232.647 580.066 230.902C581.244 229.158 582.465 227.718 583.73 226.584C584.995 225.45 586.26 224.883 587.525 224.883C589.401 224.577 590.775 224.992 591.647 226.126C592.563 227.216 592.738 229.07 592.171 231.688C592.171 234.566 592.28 237.031 592.498 239.081C592.76 241.131 593.021 243.094 593.283 244.97C593.589 246.845 593.85 248.808 594.068 250.858C594.33 252.909 594.461 255.373 594.461 258.252C594.461 258.775 594.396 259.233 594.265 259.626C594.177 259.975 593.654 260.149 592.694 260.149C592.563 260.149 592.389 260.04 592.171 259.822C591.996 259.604 591.909 259.43 591.909 259.299ZM588.376 230.052C587.896 229.354 587.242 229.288 586.413 229.855C585.584 230.423 584.712 231.36 583.796 232.669C582.88 233.978 581.942 235.548 580.982 237.38C580.023 239.212 579.129 241.066 578.3 242.941C577.471 244.817 576.751 246.605 576.141 248.307C575.53 249.964 575.116 251.338 574.897 252.429C574.897 253.999 575.137 254.893 575.617 255.111C576.097 255.286 576.686 255.024 577.384 254.326C578.082 253.628 578.867 252.625 579.739 251.316C580.655 250.008 581.528 248.612 582.356 247.129C583.229 245.646 584.036 244.206 584.777 242.811C585.562 241.415 586.173 240.281 586.609 239.408C587.002 238.492 587.307 237.642 587.525 236.856C587.743 236.071 587.918 235.33 588.049 234.632C588.223 233.89 588.311 233.149 588.311 232.407C588.354 231.666 588.376 230.881 588.376 230.052ZM600.48 260.804C600.35 259.582 600.241 257.925 600.153 255.831C600.066 253.737 599.979 251.469 599.892 249.026C599.804 246.54 599.695 243.966 599.564 241.306C599.477 238.645 599.368 236.115 599.237 233.716C599.106 231.317 598.932 229.136 598.714 227.173C598.539 225.21 598.343 223.64 598.125 222.462C598.125 221.59 598.321 221.088 598.714 220.957C599.106 220.783 599.608 220.695 600.219 220.695C600.306 220.695 600.502 220.695 600.808 220.695C601.113 220.695 601.331 220.717 601.462 220.761C601.854 222.069 602.094 223.771 602.182 225.864C602.312 227.914 602.4 230.161 602.443 232.604C602.531 235.046 602.596 237.576 602.64 240.193C602.727 242.811 602.88 245.297 603.098 247.652C603.708 244.206 604.21 241.349 604.603 239.081C605.039 236.813 605.431 235.003 605.78 233.65C606.173 232.255 606.522 231.229 606.827 230.575C607.176 229.877 607.547 229.419 607.939 229.201C608.376 228.983 608.834 228.896 609.313 228.939C609.837 228.939 610.448 228.939 611.146 228.939C611.931 228.939 612.563 229.245 613.043 229.855C613.566 230.466 613.959 231.251 614.221 232.211C614.526 233.171 614.744 234.217 614.875 235.352C615.049 236.486 615.202 237.598 615.333 238.688C615.464 239.735 615.595 240.695 615.726 241.567C615.9 242.44 616.162 243.05 616.511 243.399C617.601 240.172 618.539 237.533 619.324 235.482C620.109 233.432 620.785 231.818 621.353 230.641C621.92 229.419 622.421 228.547 622.857 228.023C623.294 227.5 623.686 227.195 624.035 227.107C624.384 226.977 624.689 226.955 624.951 227.042C625.257 227.129 625.562 227.173 625.867 227.173C627.045 227.173 627.939 227.784 628.55 229.005C629.248 230.968 629.728 232.843 629.989 234.632C630.251 236.377 630.404 238.078 630.447 239.735C630.491 241.349 630.491 242.898 630.447 244.381C630.447 245.864 630.491 247.303 630.578 248.699C630.709 250.095 630.949 251.469 631.298 252.821C631.69 254.174 632.345 255.504 633.261 256.812C632.912 257.51 632.563 257.99 632.214 258.252C631.865 258.47 631.385 258.579 630.774 258.579C630.251 258.579 629.793 258.405 629.4 258.056C629.008 257.663 628.681 257.205 628.419 256.682C628.157 256.115 627.939 255.548 627.765 254.98C627.634 254.413 627.503 253.912 627.372 253.476C627.198 247.238 626.914 242.462 626.521 239.146C626.173 235.788 625.627 234.021 624.886 233.847C624.144 233.672 623.185 235.133 622.007 238.23C620.873 241.284 619.455 246.082 617.754 252.625C617.623 252.843 617.427 252.974 617.165 253.018C616.903 253.061 616.62 253.083 616.314 253.083C616.053 253.083 615.769 253.083 615.464 253.083C615.202 253.039 614.94 253.039 614.679 253.083C613.588 246.671 612.672 242.069 611.931 239.277C611.233 236.442 610.513 235.352 609.771 236.006C609.03 236.66 608.201 239.016 607.285 243.072C606.369 247.085 605.191 252.734 603.752 260.019L600.48 260.804ZM639.28 260.804C639.149 259.582 639.04 257.925 638.953 255.831C638.866 253.737 638.779 251.469 638.691 249.026C638.604 246.54 638.495 243.966 638.364 241.306C638.277 238.645 638.168 236.115 638.037 233.716C637.906 231.317 637.732 229.136 637.514 227.173C637.339 225.21 637.143 223.64 636.925 222.462C636.925 221.59 637.121 221.088 637.514 220.957C637.906 220.783 638.408 220.695 639.019 220.695C639.106 220.695 639.302 220.695 639.607 220.695C639.913 220.695 640.131 220.717 640.262 220.761C640.654 222.069 640.894 223.771 640.981 225.864C641.112 227.914 641.2 230.161 641.243 232.604C641.33 235.046 641.396 237.576 641.439 240.193C641.527 242.811 641.679 245.297 641.897 247.652C642.508 244.206 643.01 241.349 643.402 239.081C643.839 236.813 644.231 235.003 644.58 233.65C644.973 232.255 645.322 231.229 645.627 230.575C645.976 229.877 646.347 229.419 646.739 229.201C647.175 228.983 647.633 228.896 648.113 228.939C648.637 228.939 649.247 228.939 649.945 228.939C650.73 228.939 651.363 229.245 651.843 229.855C652.366 230.466 652.759 231.251 653.021 232.211C653.326 233.171 653.544 234.217 653.675 235.352C653.849 236.486 654.002 237.598 654.133 238.688C654.264 239.735 654.395 240.695 654.525 241.567C654.7 242.44 654.962 243.05 655.311 243.399C656.401 240.172 657.339 237.533 658.124 235.482C658.909 233.432 659.585 231.818 660.152 230.641C660.719 229.419 661.221 228.547 661.657 228.023C662.093 227.5 662.486 227.195 662.835 227.107C663.184 226.977 663.489 226.955 663.751 227.042C664.056 227.129 664.362 227.173 664.667 227.173C665.845 227.173 666.739 227.784 667.35 229.005C668.048 230.968 668.527 232.843 668.789 234.632C669.051 236.377 669.203 238.078 669.247 239.735C669.291 241.349 669.291 242.898 669.247 244.381C669.247 245.864 669.291 247.303 669.378 248.699C669.509 250.095 669.749 251.469 670.098 252.821C670.49 254.174 671.145 255.504 672.061 256.812C671.712 257.51 671.363 257.99 671.014 258.252C670.665 258.47 670.185 258.579 669.574 258.579C669.051 258.579 668.593 258.405 668.2 258.056C667.808 257.663 667.48 257.205 667.219 256.682C666.957 256.115 666.739 255.548 666.564 254.98C666.434 254.413 666.303 253.912 666.172 253.476C665.997 247.238 665.714 242.462 665.321 239.146C664.972 235.788 664.427 234.021 663.686 233.847C662.944 233.672 661.984 235.133 660.807 238.23C659.673 241.284 658.255 246.082 656.554 252.625C656.423 252.843 656.227 252.974 655.965 253.018C655.703 253.061 655.42 253.083 655.114 253.083C654.853 253.083 654.569 253.083 654.264 253.083C654.002 253.039 653.74 253.039 653.479 253.083C652.388 246.671 651.472 242.069 650.73 239.277C650.033 236.442 649.313 235.352 648.571 236.006C647.83 236.66 647.001 239.016 646.085 243.072C645.169 247.085 643.991 252.734 642.552 260.019L639.28 260.804ZM677.36 246.867C677.142 246.911 676.815 246.976 676.379 247.063C675.943 247.151 675.485 247.173 675.005 247.129C674.525 247.085 674.111 246.954 673.762 246.736C673.369 246.518 673.173 246.147 673.173 245.624C673.173 245.319 673.238 245.101 673.369 244.97C673.5 244.839 673.718 244.643 674.023 244.381C674.983 243.596 675.79 242.592 676.444 241.371C677.142 240.106 677.775 238.776 678.342 237.38C678.909 235.94 679.498 234.523 680.108 233.127C680.763 231.688 681.504 230.401 682.333 229.267C683.162 228.132 684.187 227.216 685.408 226.519C686.63 225.821 688.134 225.493 689.923 225.537C690.664 225.537 691.493 225.712 692.409 226.061C693.325 226.41 694.176 226.889 694.961 227.5C695.746 228.067 696.4 228.765 696.924 229.594C697.447 230.423 697.709 231.339 697.709 232.342C697.927 232.691 697.709 233.192 697.055 233.847C696.444 234.501 695.593 235.221 694.503 236.006C693.412 236.747 692.169 237.533 690.773 238.361C689.421 239.146 688.113 239.888 686.848 240.586C685.583 241.284 684.47 241.895 683.511 242.418C682.551 242.941 681.919 243.334 681.613 243.596C681.395 244.032 681.221 244.534 681.09 245.101C680.959 245.668 680.85 246.213 680.763 246.736C680.719 247.216 680.675 247.674 680.632 248.11C680.632 248.503 680.632 248.808 680.632 249.026C680.632 249.855 680.588 250.771 680.501 251.774C680.457 252.778 680.501 253.737 680.632 254.653C680.806 255.526 681.177 256.267 681.744 256.878C682.311 257.445 683.271 257.729 684.623 257.729C686.062 257.729 687.415 257.38 688.68 256.682C689.945 255.94 691.122 255.046 692.213 253.999C693.303 252.952 694.285 251.818 695.157 250.597C696.073 249.375 696.88 248.241 697.578 247.194C698.32 246.104 698.974 245.21 699.541 244.512C700.108 243.814 700.588 243.465 700.98 243.465C701.417 243.465 701.875 243.552 702.354 243.727C702.878 243.857 703.14 244.206 703.14 244.773C703.14 245.559 702.812 246.496 702.158 247.587C701.548 248.677 700.719 249.833 699.672 251.055C698.669 252.276 697.491 253.497 696.139 254.719C694.83 255.896 693.5 256.965 692.147 257.925C690.795 258.841 689.465 259.604 688.156 260.215C686.848 260.782 685.692 261.065 684.688 261.065C682.726 261.065 681.243 260.586 680.239 259.626C679.236 258.666 678.516 257.467 678.08 256.027C677.688 254.588 677.469 253.061 677.426 251.447C677.426 249.79 677.404 248.263 677.36 246.867ZM689.399 229.201C688.658 229.201 687.873 229.572 687.044 230.313C686.215 231.011 685.43 231.884 684.688 232.931C683.991 233.934 683.402 234.981 682.922 236.071C682.486 237.118 682.268 237.991 682.268 238.688C682.922 238.688 683.86 238.449 685.081 237.969C686.346 237.445 687.589 236.813 688.811 236.071C690.032 235.33 691.101 234.545 692.017 233.716C692.933 232.887 693.391 232.102 693.391 231.36C693.391 230.968 693.238 230.641 692.933 230.379C692.627 230.117 692.257 229.899 691.82 229.725C691.428 229.55 691.013 229.419 690.577 229.332C690.141 229.245 689.748 229.201 689.399 229.201ZM706.411 229.463V228.939C706.411 228.503 706.564 228.198 706.869 228.023C707.218 227.849 707.611 227.762 708.047 227.762C708.396 227.762 708.723 227.805 709.028 227.893C709.334 227.936 709.574 228.176 709.748 228.612C709.879 229.267 710.01 230.183 710.141 231.36C710.271 232.494 710.424 233.759 710.599 235.155C710.773 236.551 710.948 238.034 711.122 239.604C711.34 241.131 711.536 242.592 711.711 243.988C711.929 245.34 712.147 246.562 712.365 247.652C712.583 248.743 712.823 249.572 713.085 250.139C712.954 245.951 713.085 242.331 713.478 239.277C713.87 236.18 714.612 233.672 715.702 231.753C716.836 229.79 718.363 228.438 720.282 227.696C722.245 226.911 724.688 226.737 727.61 227.173C728.963 227.173 729.639 227.893 729.639 229.332C729.639 229.899 729.268 230.292 728.526 230.51C727.785 230.684 726.956 230.815 726.04 230.902C725.124 230.946 724.23 231.011 723.357 231.099C722.485 231.186 721.853 231.404 721.46 231.753C719.89 232.625 718.777 233.978 718.123 235.81C717.512 237.642 717.076 239.801 716.814 242.287C716.553 244.773 716.356 247.5 716.226 250.466C716.138 253.388 715.855 256.398 715.375 259.495C715.375 259.931 715.201 260.258 714.852 260.477C714.503 260.695 714.066 260.804 713.543 260.804C713.063 260.804 712.583 260.695 712.104 260.477C711.667 260.258 711.318 259.931 711.057 259.495L706.411 229.463ZM734.873 246.867C734.655 246.911 734.328 246.976 733.892 247.063C733.455 247.151 732.997 247.173 732.518 247.129C732.038 247.085 731.623 246.954 731.274 246.736C730.882 246.518 730.686 246.147 730.686 245.624C730.686 245.319 730.751 245.101 730.882 244.97C731.013 244.839 731.231 244.643 731.536 244.381C732.496 243.596 733.303 242.592 733.957 241.371C734.655 240.106 735.287 238.776 735.854 237.38C736.422 235.94 737.01 234.523 737.621 233.127C738.275 231.688 739.017 230.401 739.846 229.267C740.674 228.132 741.7 227.216 742.921 226.519C744.142 225.821 745.647 225.493 747.436 225.537C748.177 225.537 749.006 225.712 749.922 226.061C750.838 226.41 751.688 226.889 752.474 227.5C753.259 228.067 753.913 228.765 754.437 229.594C754.96 230.423 755.222 231.339 755.222 232.342C755.44 232.691 755.222 233.192 754.567 233.847C753.957 234.501 753.106 235.221 752.016 236.006C750.925 236.747 749.682 237.533 748.286 238.361C746.934 239.146 745.625 239.888 744.36 240.586C743.095 241.284 741.983 241.895 741.023 242.418C740.064 242.941 739.431 243.334 739.126 243.596C738.908 244.032 738.733 244.534 738.603 245.101C738.472 245.668 738.363 246.213 738.275 246.736C738.232 247.216 738.188 247.674 738.145 248.11C738.145 248.503 738.145 248.808 738.145 249.026C738.145 249.855 738.101 250.771 738.014 251.774C737.97 252.778 738.014 253.737 738.145 254.653C738.319 255.526 738.69 256.267 739.257 256.878C739.824 257.445 740.784 257.729 742.136 257.729C743.575 257.729 744.927 257.38 746.192 256.682C747.457 255.94 748.635 255.046 749.726 253.999C750.816 252.952 751.798 251.818 752.67 250.597C753.586 249.375 754.393 248.241 755.091 247.194C755.832 246.104 756.487 245.21 757.054 244.512C757.621 243.814 758.101 243.465 758.493 243.465C758.929 243.465 759.387 243.552 759.867 243.727C760.391 243.857 760.652 244.206 760.652 244.773C760.652 245.559 760.325 246.496 759.671 247.587C759.06 248.677 758.231 249.833 757.185 251.055C756.181 252.276 755.004 253.497 753.651 254.719C752.343 255.896 751.012 256.965 749.66 257.925C748.308 258.841 746.978 259.604 745.669 260.215C744.36 260.782 743.204 261.065 742.201 261.065C740.238 261.065 738.755 260.586 737.752 259.626C736.749 258.666 736.029 257.467 735.593 256.027C735.2 254.588 734.982 253.061 734.938 251.447C734.938 249.79 734.917 248.263 734.873 246.867ZM746.912 229.201C746.171 229.201 745.385 229.572 744.557 230.313C743.728 231.011 742.943 231.884 742.201 232.931C741.503 233.934 740.914 234.981 740.435 236.071C739.998 237.118 739.78 237.991 739.78 238.688C740.435 238.688 741.372 238.449 742.594 237.969C743.859 237.445 745.102 236.813 746.323 236.071C747.545 235.33 748.613 234.545 749.529 233.716C750.445 232.887 750.903 232.102 750.903 231.36C750.903 230.968 750.751 230.641 750.445 230.379C750.14 230.117 749.769 229.899 749.333 229.725C748.94 229.55 748.526 229.419 748.09 229.332C747.654 229.245 747.261 229.201 746.912 229.201ZM766.672 260.149C766.192 254.261 765.756 248.372 765.363 242.483C765.014 236.551 764.622 230.401 764.186 224.032C764.186 222.985 764.753 222.462 765.887 222.462H766.41C766.541 222.462 766.694 222.636 766.868 222.985C767.043 223.334 767.217 223.989 767.392 224.948C767.61 225.864 767.828 227.282 768.046 229.201C768.308 231.077 768.613 233.541 768.962 236.595C769.311 239.648 769.703 243.465 770.14 248.045C771.056 245.079 771.775 242.2 772.299 239.408C772.822 236.617 773.498 234.087 774.327 231.818C775.156 229.507 776.312 227.478 777.795 225.733C779.322 223.989 781.503 222.702 784.338 221.873C785.908 222.135 787.173 223.094 788.133 224.752C789.092 226.366 789.856 228.372 790.423 230.771C790.99 233.171 791.382 235.788 791.601 238.623C791.819 241.415 791.95 244.097 791.993 246.671C792.037 249.244 792.059 251.556 792.059 253.606C792.059 255.613 792.102 257.052 792.189 257.925C792.059 258.274 791.862 258.579 791.601 258.841C791.339 259.103 791.034 259.299 790.685 259.43C790.379 259.517 790.074 259.539 789.769 259.495C789.463 259.408 789.18 259.168 788.918 258.775C788.918 258.296 788.874 257.314 788.787 255.831C788.7 254.348 788.591 252.625 788.46 250.662C788.329 248.656 788.176 246.54 788.002 244.315C787.871 242.047 787.74 239.932 787.609 237.969C787.522 235.962 787.435 234.217 787.348 232.734C787.26 231.251 787.195 230.27 787.151 229.79C786.235 228.176 785.319 227.26 784.403 227.042C783.531 226.824 782.637 227.107 781.721 227.893C780.848 228.678 779.998 229.877 779.169 231.491C778.34 233.105 777.555 234.937 776.813 236.987C776.072 238.994 775.374 241.109 774.72 243.334C774.065 245.559 773.498 247.718 773.019 249.812C772.539 251.862 772.124 253.737 771.775 255.438C771.47 257.096 771.274 258.383 771.187 259.299C771.056 259.604 770.772 259.91 770.336 260.215C769.943 260.477 769.507 260.673 769.027 260.804C768.591 260.935 768.133 260.978 767.653 260.935C767.217 260.847 766.89 260.586 766.672 260.149Z" fill="#BA0000"/>
</svg>
