<svg xmlns="http://www.w3.org/2000/svg" xmlns:xlink="http://www.w3.org/1999/xlink" viewBox="0 0 81.84 201.64"><defs><style>.cls-1{fill:#ffa200;}.cls-2{fill:#ffce1b;}.cls-3{fill:#ffebe6;}.cls-4{fill:#ba0000;}.cls-5{opacity:0.06;}.cls-12,.cls-13,.cls-20,.cls-21,.cls-23,.cls-6,.cls-7{fill:#fff;}.cls-6{opacity:0.09;}.cls-7{opacity:0.23;}.cls-8{fill:#949494;}.cls-9{opacity:0.18;}.cls-10{fill:#4d4d4d;}.cls-11{fill:#ebebeb;}.cls-13{opacity:0.38;}.cls-14{opacity:0.25;}.cls-15{fill:#00736f;}.cls-16{fill:#016661;}.cls-17{fill:url(#radial-gradient);}.cls-18{fill:#53bce3;}.cls-19{fill:#47b3e4;}.cls-20{opacity:0.56;}.cls-21{opacity:0.52;}.cls-22{opacity:0.08;}.cls-23{opacity:0.17;}</style><radialGradient id="radial-gradient" cx="38.95" cy="45.78" r="9.37" gradientUnits="userSpaceOnUse"><stop offset="0" stop-color="#91e5f1"/><stop offset="1" stop-color="#48cdf1"/></radialGradient></defs><title>rakketMiddel 2</title><g id="Laag_2" data-name="Laag 2"><g id="Laag_1-2" data-name="Laag 1"><path class="cls-1" d="M27.94,137.27c0,16.86,13,64.37,13,64.37s13-47.51,13-64.37-5.81-18.37-13-18.37S27.94,120.4,27.94,137.27Z"/><path class="cls-2" d="M31.53,131.6c0,11.67,9.39,44.53,9.39,44.53s9.39-32.86,9.39-44.53-4.2-12.7-9.39-12.7S31.53,119.94,31.53,131.6Z"/><path class="cls-3" d="M35.06,126.2c0,6.71,2.62,25.6,5.86,25.6s5.86-18.89,5.86-25.6-2.62-7.3-5.86-7.3S35.06,119.5,35.06,126.2Z"/><path class="cls-4" d="M23.15,93.2A96.37,96.37,0,0,0,5,106.56,15.51,15.51,0,0,0,.06,119.3,150.07,150.07,0,0,0,6.76,150a.54.54,0,0,0,1,0C10.9,135.57,14.14,122.5,18,114.79l6.69-11.5Z"/><path class="cls-5" d="M23.64,96.46c-3.33,6-10.82,31.44-8,23.7A55,55,0,0,1,18,114.79l6.69-11.5Z"/><path class="cls-6" d="M17.81,96.46A96.37,96.37,0,0,0,5,106.56,15.51,15.51,0,0,0,.06,119.3,150.07,150.07,0,0,0,6.76,150C4.67,124.85,17.81,110.29,17.81,96.46Z"/><path class="cls-7" d="M14.27,101.42c.77.37-2.24,4.45-5,10.27S5,122.87,4.24,122.5s-1.75-6.93,1-12.75S13.49,101.05,14.27,101.42Z"/><path class="cls-4" d="M58.69,93.2a96.37,96.37,0,0,1,18.2,13.36,15.48,15.48,0,0,1,4.89,12.74A150.66,150.66,0,0,1,75.09,150a.54.54,0,0,1-1,0c-3.1-14.39-6.33-27.46-10.16-35.17l-6.69-11.5Z"/><path class="cls-5" d="M58.21,96.46c3.32,6,10.81,31.44,7.95,23.7a57.49,57.49,0,0,0-2.28-5.37l-6.69-11.5Z"/><path class="cls-6" d="M64,96.46a95.74,95.74,0,0,1,12.86,10.1,15.48,15.48,0,0,1,4.89,12.74A150.66,150.66,0,0,1,75.09,150C77.17,124.85,64,110.29,64,96.46Z"/><path class="cls-7" d="M73,105.15c-.47.22,1.15,2.9,2.83,6.44s2.8,6.61,3.27,6.39.94-4.06-.74-7.6S73.49,104.92,73,105.15Z"/><path class="cls-8" d="M49.78,121.79a141,141,0,0,0-17.68,0,1.09,1.09,0,0,1-.44-.06c-1.71-.56-3.18-1.6-3.18-3.46v-8.15a3.48,3.48,0,0,1,3.39-3.53h18.4a3.47,3.47,0,0,1,3.39,3.53v8.15c0,1.75-1.29,2.77-2.86,3.35A2.53,2.53,0,0,1,49.78,121.79Z"/><path class="cls-9" d="M51,106.68l-.68-.07a57.32,57.32,0,0,1-.44,15.18,2.47,2.47,0,0,0,1-.15c1.57-.58,2.86-1.6,2.86-3.35v-8.15C53.66,108.2,52.82,106.68,51,106.68Z"/><path class="cls-10" d="M52.1,116.79c-7.11.18-14.48.15-22.15,0a1.64,1.64,0,0,1-.32-.05c-2.14-.66-4-1.89-4-4.12V103a4.17,4.17,0,0,1,4.16-4.17H52.36A4.18,4.18,0,0,1,56.53,103v9.62c0,2.2-1.83,3.43-3.93,4.09A2.09,2.09,0,0,1,52.1,116.79Z"/><path class="cls-9" d="M52.41,98.82H51.8a96.73,96.73,0,0,1-.6,18h.85a2.17,2.17,0,0,0,.5-.08c2.1-.64,3.93-1.86,3.94-4.07l.07-9.62A4.18,4.18,0,0,0,52.41,98.82Z"/><path class="cls-11" d="M60.21,107.12a5.39,5.39,0,0,1-4.54,4.47c-5,.56-10.11.3-15,.32s-9.55.24-14.52-.32a5.39,5.39,0,0,1-4.54-4.47C8,45.12,37.23.74,40.93,0,44.63.74,73.84,45.12,60.21,107.12Z"/><path class="cls-4" d="M37.6,105.94l3-11c.08-.56.62-.56.69,0l3,11c-.52,15.33-1.64,32.62-3.1,51a.24.24,0,0,1-.47,0C39.21,138.35,38.05,120.93,37.6,105.94Z"/><path class="cls-4" d="M25.82,27.51a152.26,152.26,0,0,1,15.6-.57c4.2,0,10.15.07,14.61.54C50.1,10.42,42.67.35,40.93,0,39.18.35,31.74,10.43,25.82,27.51Z"/><path class="cls-12" d="M34.69,28.71l-4.81.22c-9.43,21.54-6.92,52.39-3.95,78.9.4,1.35,1.18,2.53,2.58,2.53h7C31.83,78.33,30,59.41,34.69,28.71Z"/><path class="cls-13" d="M35.52,25.86c.54-3.37,1.13-6.66,1.84-10.36A50.81,50.81,0,0,0,31,26.09Z"/><path class="cls-14" d="M41.07,60.94A12.74,12.74,0,0,1,28.35,48.83c0,.21,0,.41,0,.63a12.74,12.74,0,0,0,25.48,0c0-.22,0-.42,0-.63A12.73,12.73,0,0,1,41.07,60.94Z"/><circle class="cls-15" cx="41.07" cy="47.72" r="12.75" transform="translate(-15.3 75.76) rotate(-75.73)"/><circle class="cls-16" cx="41.07" cy="47.72" r="10.5" transform="translate(-14.77 76.79) rotate(-76.78)"/><circle class="cls-17" cx="41.07" cy="47.72" r="8.77"/><path class="cls-18" d="M41.07,41.06a8.78,8.78,0,0,1,8.71,7.71,9,9,0,0,0,.06-1.05,8.77,8.77,0,0,0-17.54,0,9,9,0,0,0,.07,1.05A8.77,8.77,0,0,1,41.07,41.06Z"/><path class="cls-19" d="M47.6,49.68c.74,1.14.1,2.86-1.43,3.85s-3.36.89-4.09-.24-.1-2.85,1.42-3.85S46.86,48.55,47.6,49.68Z"/><path class="cls-20" d="M41.89,42.11c.12.64-.45.9-1.28,1s-1.59.14-1.7-.5.46-1.27,1.28-1.42A1.37,1.37,0,0,1,41.89,42.11Z"/><path class="cls-20" d="M37.47,43.08c.53.46,0,1.46-1,2.52s-1.84,1.78-2.37,1.32-.38-1.92.54-3S36.94,42.63,37.47,43.08Z"/><path class="cls-21" d="M37.28,36.48c0,.19-3,1.47-4.88,3.69-2.29,2.76-2.78,5.66-2.94,5.53s.17-3.38,2.41-6C34.3,36.92,37.26,36.26,37.28,36.48Z"/><path class="cls-21" d="M44.22,59.15c0-.18,4.1-1.76,6.19-4.71A16,16,0,0,0,53,46.81a12.87,12.87,0,0,1-2.18,8C48.14,58.58,44.16,59.36,44.22,59.15Z"/><path class="cls-22" d="M40.93,0c-1.55.31-7.55,8.24-13,21.89,23-33.88,35.9,40.3,25.15,89.93,0,0,1.77-.13,2.61-.23a5.39,5.39,0,0,0,4.54-4.47C73.84,45.12,44.63.74,40.93,0Z"/><path class="cls-5" d="M41.27,94.9c0-.26-.17-.4-.31-.42v62.69a.23.23,0,0,0,.2-.23c1.46-18.38,2.58-35.67,3.1-51Z"/><path class="cls-23" d="M29.39,112.85h6.15a0,0,0,0,1,0,0V116a0,0,0,0,1,0,0H32a2.57,2.57,0,0,1-2.57-2.57v-.61A0,0,0,0,1,29.39,112.85Z"/><path class="cls-23" d="M36.06,120.91l-3.59,0a1.59,1.59,0,0,1-1.59-1.59v-1.65l5.18,0Z"/><polygon class="cls-7" points="40.85 94.93 40.09 105.85 40.93 134.93 40.85 94.93"/></g></g></svg>