<svg width="1920" height="275" viewBox="0 0 1920 275" fill="none" xmlns="http://www.w3.org/2000/svg">
<path d="M1920 96.741C1917.33 100.3 1915.76 104.561 1915.49 108.998C1913.04 110.108 1910.91 111.799 1909.27 113.924C1906.21 110.676 1902.27 108.391 1897.92 107.347C1893.58 106.304 1889.03 106.549 1884.82 108.051C1880.62 109.554 1876.94 112.249 1874.25 115.805C1871.56 119.361 1869.97 123.624 1869.68 128.07C1866.51 129.018 1863.58 130.636 1861.09 132.813C1858.61 134.99 1856.62 137.676 1855.27 140.687C1849.83 132.909 1841.88 127.229 1832.74 124.597C1823.61 121.965 1813.85 122.54 1805.09 126.227C1796.33 129.914 1789.1 136.489 1784.62 144.852C1780.14 153.215 1778.67 162.86 1780.46 172.174C1776.26 175.208 1773.21 179.572 1771.81 184.555C1770.42 189.537 1770.75 194.845 1772.77 199.612C1772.16 199.612 1771.57 199.612 1770.97 199.612C1765.12 199.613 1759.49 201.841 1755.23 205.841C1750.97 209.841 1748.41 215.312 1748.06 221.135L1747.76 221.27C1747.95 220.11 1748.05 218.937 1748.06 217.762C1748.07 213.882 1747.08 210.064 1745.2 206.667C1743.33 203.27 1740.61 200.406 1737.32 198.343C1734.02 196.281 1730.26 195.088 1726.37 194.877C1722.49 194.666 1718.62 195.444 1715.12 197.138C1713.54 186.823 1708.12 177.481 1699.94 170.978C1691.76 164.475 1681.43 161.29 1670.99 162.06C1660.56 162.83 1650.81 167.497 1643.68 175.13C1636.54 182.763 1632.56 192.799 1632.53 203.233C1632.53 206.552 1632.93 209.859 1633.72 213.084C1631.6 216.616 1630.47 220.659 1630.48 224.779C1630.48 225.364 1630.48 225.948 1630.48 226.533H1630.52C1630.53 226.316 1630.53 226.098 1630.52 225.881C1630.52 222.918 1629.71 220.012 1628.17 217.478C1626.63 214.945 1624.42 212.882 1621.79 211.513C1619.15 210.145 1616.19 209.524 1613.23 209.717C1610.26 209.911 1607.41 210.912 1604.98 212.612C1602.77 208.332 1599.27 204.856 1594.97 202.677C1590.67 200.498 1585.79 199.727 1581.02 200.474C1576.26 201.222 1571.85 203.449 1568.43 206.84C1565 210.23 1562.74 214.611 1561.96 219.359C1559.66 218.597 1557.25 218.21 1554.83 218.212C1552.21 218.219 1549.61 218.675 1547.14 219.561C1546.32 217.199 1544.96 215.059 1543.16 213.311C1541.37 211.564 1539.19 210.255 1536.81 209.49C1534.42 208.725 1531.89 208.523 1529.41 208.901C1526.93 209.278 1524.57 210.225 1522.52 211.667C1520.38 209.515 1517.84 207.809 1515.03 206.651C1512.22 205.492 1509.21 204.904 1506.18 204.92H1505.3C1505.88 202.902 1506.17 200.812 1506.18 198.713C1506.18 192.634 1503.75 186.805 1499.45 182.507C1495.14 178.209 1489.29 175.795 1483.2 175.795C1480.16 175.787 1477.16 176.392 1474.36 177.572C1475.75 174.566 1476.47 171.299 1476.48 167.991C1476.48 165.521 1476.08 163.067 1475.29 160.726C1476.35 157.576 1476.71 154.233 1476.34 150.929C1475.98 147.625 1474.9 144.44 1473.18 141.594C1471.46 138.748 1469.14 136.31 1466.38 134.448C1463.62 132.586 1460.48 131.345 1457.2 130.811C1453.91 130.277 1450.54 130.464 1447.33 131.357C1444.12 132.25 1441.15 133.828 1438.61 135.983C1436.07 138.138 1434.04 140.817 1432.64 143.835C1431.25 146.854 1430.53 150.138 1430.53 153.462C1430.54 154.873 1430.68 156.281 1430.94 157.668C1426.95 153.413 1421.5 150.832 1415.67 150.452C1409.85 150.072 1404.1 151.92 1399.6 155.621C1397.07 151.342 1393.21 147.996 1388.62 146.085C1388.47 140.753 1386.45 135.642 1382.91 131.646C1385.32 128.209 1386.74 124.177 1387.01 119.991C1387.27 115.805 1386.38 111.627 1384.43 107.912C1382.48 104.197 1379.54 101.089 1375.93 98.9288C1372.33 96.7683 1368.2 95.638 1363.99 95.6615C1363.39 95.6615 1362.8 95.6615 1362.19 95.6615C1361.13 93.1123 1359.61 90.7794 1357.7 88.7794C1358.05 86.9135 1358.05 85.0003 1357.7 83.1343C1359.62 80.4237 1360.65 77.1855 1360.64 73.8683C1360.63 70.512 1359.58 67.2398 1357.63 64.5043C1355.68 61.7688 1352.93 59.7051 1349.75 58.5986C1346.58 57.4922 1343.13 57.3977 1339.9 58.3281C1336.67 59.2586 1333.8 61.1681 1331.71 63.7926C1329.69 60.3765 1326.81 57.5436 1323.36 55.5721C1319.91 53.6006 1316 52.5582 1312.02 52.5474C1311.06 52.558 1310.1 52.6256 1309.14 52.7498C1310.17 47.4114 1310.15 41.9216 1309.06 36.594C1307.97 31.2663 1305.83 26.2051 1302.78 21.6994C1299.73 17.1936 1295.82 13.3314 1291.27 10.3335C1286.72 7.33553 1281.63 5.26045 1276.28 4.22673C1270.92 3.19301 1265.42 3.22089 1260.08 4.30879C1254.74 5.39668 1249.66 7.52328 1245.15 10.5672C1240.63 13.611 1236.76 17.5126 1233.75 22.0491C1230.75 26.5855 1228.67 31.6681 1227.63 37.0065H1226.73C1224.29 37.0044 1221.88 37.5513 1219.68 38.6066C1217.49 39.6619 1215.56 41.1983 1214.04 43.1014C1211.63 41.2668 1208.76 40.1397 1205.75 39.8477C1202.74 39.5557 1199.71 40.1104 1196.99 41.4491C1194.28 42.7877 1192 44.8569 1190.4 47.4224C1188.81 49.988 1187.97 52.9474 1187.97 55.9659C1187.97 57.6921 1188.25 59.4073 1188.78 61.0487L1187.66 61.5435C1184.75 59.402 1181.38 57.9756 1177.82 57.3806C1174.26 56.7857 1170.61 57.0391 1167.16 58.1201C1163.72 59.2011 1160.58 61.0792 1158 63.6011C1155.42 66.123 1153.48 69.2172 1152.32 72.6313C1152.23 69.5999 1151.29 66.6549 1149.61 64.1315C1147.92 61.6081 1145.56 59.6079 1142.79 58.3586C1140.02 57.1093 1136.95 56.6612 1133.94 57.0652C1130.92 57.4692 1128.08 58.7092 1125.74 60.6439C1122.01 59.0472 1117.8 58.9108 1113.97 60.2616C1113.25 56.7778 1111.73 53.5096 1109.52 50.716C1107.31 47.9225 1104.48 45.6804 1101.25 44.1678C1098.03 42.6552 1094.49 41.9135 1090.92 42.0017C1087.36 42.0899 1083.86 43.0054 1080.72 44.6757C1074.83 34.12 1065.05 26.2601 1053.46 22.755C1041.87 19.2498 1029.37 20.3736 1018.6 25.8892C1007.82 31.4048 999.617 40.8807 995.713 52.3167C991.81 63.7528 992.513 76.2543 997.676 87.1826C991.99 88.395 986.973 91.7044 983.629 96.4487C981.102 94.9452 978.207 94.167 975.264 94.1996C972.78 94.1853 970.325 94.7408 968.09 95.8232C965.855 96.9056 963.899 98.4859 962.374 100.442C960.849 102.398 959.795 104.678 959.293 107.105C958.791 109.533 958.856 112.043 959.481 114.441C956.175 115.471 953.285 117.528 951.233 120.311C949.181 123.095 948.074 126.459 948.073 129.914C948.067 133.02 948.968 136.06 950.666 138.663C946.622 139.828 942.976 142.078 940.125 145.167C937.275 148.256 935.329 152.067 934.5 156.183C932.824 155.605 931.064 155.308 929.291 155.306C924.98 155.306 920.845 157.014 917.796 160.055C914.748 163.096 913.035 167.221 913.035 171.522C913.049 174.373 913.828 177.168 915.29 179.618C914.979 180.122 914.708 180.648 914.478 181.193C912.139 178.662 909.05 176.943 905.662 176.29C903.647 172.833 900.421 170.242 896.606 169.016C892.79 167.79 888.655 168.015 884.996 169.649C881.337 171.282 878.414 174.208 876.789 177.864C875.163 181.519 874.951 185.645 876.193 189.447C872.542 190.948 869.337 193.356 866.881 196.441C864.907 192.792 861.977 189.745 858.403 187.626C854.83 185.507 850.747 184.395 846.589 184.409C845.198 184.421 843.811 184.549 842.441 184.791C842.196 183.362 841.811 181.961 841.291 180.608C842.29 178.025 842.802 175.28 842.801 172.511C842.835 168.822 841.972 165.179 840.286 161.894C838.6 158.61 836.143 155.781 833.122 153.651C830.102 151.52 826.61 150.151 822.944 149.659C819.278 149.168 815.547 149.57 812.07 150.83C810.809 146.903 808.507 143.389 805.409 140.658C802.311 137.928 798.531 136.083 794.469 135.318C790.407 134.553 786.213 134.897 782.33 136.313C778.447 137.729 775.02 140.165 772.41 143.364C770.656 143.363 768.908 143.567 767.202 143.971C767.213 143.754 767.213 143.536 767.202 143.319C767.202 137.241 764.781 131.411 760.473 127.113C756.164 122.815 750.32 120.401 744.227 120.401C741.321 120.398 738.442 120.956 735.749 122.043C735.094 119.087 733.857 116.289 732.111 113.813C730.365 111.337 728.144 109.231 725.576 107.616C723.009 106.002 720.145 104.912 717.153 104.409C714.16 103.905 711.096 103.999 708.14 104.685C705.184 105.37 702.393 106.634 699.93 108.402C697.466 110.171 695.379 112.409 693.789 114.988C692.198 117.566 691.136 120.434 690.664 123.425C690.192 126.415 690.319 129.47 691.039 132.411C686.255 132.468 681.609 134.017 677.751 136.839C673.894 139.662 671.018 143.618 669.527 148.152C668.035 152.687 668.003 157.573 669.435 162.127C670.867 166.68 673.69 170.673 677.51 173.546H676.676C671.57 173.551 666.611 175.255 662.585 178.387C658.558 181.52 655.694 185.902 654.445 190.841C649.846 189.538 644.95 189.727 640.466 191.381C639.322 187.832 637.328 184.615 634.657 182.009C631.985 179.403 628.716 177.486 625.134 176.425C625.252 175.469 625.312 174.508 625.315 173.546C625.27 168.017 623.221 162.691 619.546 158.551C615.871 154.412 610.818 151.739 605.321 151.026C599.825 150.313 594.255 151.609 589.641 154.673C585.027 157.738 581.681 162.364 580.221 167.698H579.432C577.305 165.562 574.776 163.867 571.99 162.709C569.204 161.551 566.216 160.954 563.198 160.951C562.454 160.951 561.71 160.951 560.943 161.064C559.471 158.438 557.494 156.129 555.126 154.267C552.757 152.406 550.043 151.029 547.14 150.216C544.236 149.403 541.201 149.17 538.207 149.53C535.213 149.891 532.32 150.837 529.693 152.315C529.919 151.595 530.122 150.853 530.279 150.066C533.027 148.328 535.373 146.028 537.162 143.318C538.95 140.607 540.141 137.548 540.655 134.344C541.168 131.14 540.993 127.863 540.141 124.731C539.289 121.6 537.779 118.685 535.712 116.179C533.644 113.674 531.067 111.635 528.15 110.199C525.232 108.762 522.043 107.961 518.791 107.848C515.54 107.734 512.302 108.312 509.292 109.542C506.281 110.771 503.567 112.625 501.329 114.981C499.856 114.068 498.241 113.407 496.549 113.024C495.934 109.602 494.546 106.364 492.491 103.556C495.313 100.541 496.876 96.5661 496.861 92.4415C496.845 88.3169 495.252 84.3537 492.407 81.3607C489.562 78.3677 485.679 76.5705 481.55 76.3359C477.422 76.1012 473.36 77.4469 470.192 80.0981C471.665 76.6188 472.252 72.83 471.901 69.0694C471.55 65.3088 470.272 61.6933 468.18 58.5449C466.089 55.3966 463.249 52.8133 459.914 51.0252C456.579 49.2371 452.852 48.2997 449.066 48.2967C444.669 48.2879 440.363 49.5452 436.665 51.9176C437.373 45.7692 436.846 39.5416 435.115 33.5985C433.384 27.6553 430.483 22.1157 426.583 17.3029C422.682 12.4901 417.859 8.50051 412.396 5.56709C406.933 2.63366 400.939 0.815147 394.763 0.217669C388.588 -0.379808 382.355 0.255723 376.428 2.08718C370.502 3.91864 365 6.90933 360.245 10.8847C355.49 14.86 351.576 19.7404 348.732 25.2409C345.888 30.7414 344.171 36.7519 343.682 42.9215C338.563 39.6712 332.793 37.5797 326.777 36.7943C320.761 36.0088 314.645 36.5485 308.861 38.3753C303.077 40.2022 297.764 43.2717 293.297 47.3678C288.831 51.4639 285.318 56.487 283.008 62.0833C281.826 61.8028 280.616 61.6595 279.401 61.656C276.061 61.6721 272.808 62.7151 270.084 64.643C267.361 66.5709 265.299 69.2898 264.182 72.4289C260.718 71.1994 257.01 70.8185 253.368 71.3182C249.726 71.818 246.258 73.1838 243.257 75.3004C240.255 77.4171 237.807 80.2226 236.12 83.4804C234.433 86.7382 233.556 90.3529 233.563 94.0197C233.563 97.67 234.439 101.267 236.118 104.511C237.797 107.754 240.23 110.55 243.213 112.664C238.858 114.124 235.044 116.856 232.265 120.506C229.487 124.155 227.873 128.554 227.633 133.131C223.106 133.097 218.669 134.4 214.883 136.876C211.096 139.352 208.128 142.889 206.352 147.043C204.575 151.197 204.07 155.783 204.9 160.222C205.73 164.662 207.858 168.758 211.016 171.994C205.788 173.574 200.891 176.089 196.563 179.416C195.351 176.554 193.338 174.1 190.766 172.348C188.194 170.595 185.17 169.618 182.056 169.533C178.943 169.448 175.87 170.258 173.205 171.866C170.54 173.475 168.396 175.815 167.027 178.606C162.961 175.312 157.881 173.517 152.642 173.523C151.22 173.532 149.801 173.668 148.403 173.928C148.437 173.389 148.437 172.848 148.403 172.309C148.403 170.182 147.984 168.077 147.168 166.112C146.352 164.147 145.156 162.362 143.649 160.859C142.141 159.355 140.352 158.162 138.382 157.348C136.412 156.535 134.302 156.116 132.17 156.116C130.038 156.116 127.927 156.535 125.957 157.348C123.988 158.162 122.198 159.355 120.691 160.859C119.183 162.362 117.987 164.147 117.172 166.112C116.356 168.077 115.936 170.182 115.936 172.309C115.93 173.443 116.051 174.575 116.297 175.682C111.178 173.28 105.348 172.857 99.9338 174.494C94.52 176.13 89.9067 179.711 86.9858 184.544C84.0965 179.787 79.5672 176.244 74.2468 174.58C77.128 169.556 77.9943 163.629 76.6716 157.994C75.3489 152.358 71.9352 147.431 67.1176 144.204C62.2999 140.978 56.436 139.691 50.7057 140.603C44.9754 141.516 39.8042 144.559 36.2328 149.121C34.3925 145.25 31.0947 142.259 27.0562 140.8C28.5894 137.264 28.8085 133.298 27.674 129.615C26.5395 125.933 24.1259 122.774 20.8667 120.707C17.6074 118.64 13.716 117.799 9.89146 118.337C6.06692 118.874 2.55979 120.755 0 123.64V275H1920V96.741Z" fill="url(#paint0_linear)"/>
<defs>
<linearGradient id="paint0_linear" x1="953.371" y1="297.895" x2="990.568" y2="-257.338" gradientUnits="userSpaceOnUse">
<stop stop-color="white"/>
<stop offset="1" stop-color="white"/>
</linearGradient>
</defs>
</svg>
